999
dxfrw 0.6.3
  0
SECTION
  2
HEADER
  9
$ACADVER
  1
AC1021
  9
$DWGCODEPAGE
  3
ANSI_1252
  9
$INSBASE
 10
0
 20
0
 30
0
  9
$EXTMIN
 10
10000000000
 20
10000000000
 30
0
  9
$EXTMAX
 10
-10000000000
 20
-10000000000
 30
0
  9
$LIMMIN
 10
0
 20
0
  9
$LIMMAX
 10
420
 20
297
  9
$ORTHOMODE
 70
    0
  9
$REGENMODE
 70
    1
  9
$FILLMODE
 70
    1
  9
$QTEXTMODE
 70
    0
  9
$MIRRTEXT
 70
    0
  9
$LTSCALE
 40
1
  9
$ATTMODE
 70
    0
  9
$TEXTSIZE
 40
2.5
  9
$TRACEWID
 40
15.68
  9
$TEXTSTYLE
  7
STANDARD
  9
$CLAYER
  8
Dimensions
  9
$CELTYPE
  6
BYLAYER
  9
$CECOLOR
 62
  256
  9
$CELTSCALE
 40
1
  9
$DISPSILH
 70
    0
  9
$DIMSCALE
 40
1
  9
$DIMASZ
 40
2.5
  9
$DIMEXO
 40
0.625
  9
$DIMDLI
 40
3.75
  9
$DIMRND
 40
0
  9
$DIMDLE
 40
0
  9
$DIMEXE
 40
1.25
  9
$DIMTP
 40
0
  9
$DIMTM
 40
0
  9
$DIMTXT
 40
2.5
  9
$DIMCEN
 40
2.5
  9
$DIMTSZ
 40
0
  9
$DIMTOL
 70
    0
  9
$DIMLIM
 70
    0
  9
$DIMTIH
 70
    0
  9
$DIMTOH
 70
    0
  9
$DIMSE1
 70
    0
  9
$DIMSE2
 70
    0
  9
$DIMTAD
 70
    1
  9
$DIMZIN
 70
    8
  9
$DIMBLK
  1

  9
$DIMASO
 70
    1
  9
$DIMSHO
 70
    1
  9
$DIMPOST
  1

  9
$DIMAPOST
  1

  9
$DIMALT
 70
    0
  9
$DIMALTD
 70
    3
  9
$DIMALTF
 40
0.03937
  9
$DIMLFAC
 40
1
  9
$DIMTOFL
 70
    1
  9
$DIMTVP
 40
0
  9
$DIMTIX
 70
    0
  9
$DIMSOXD
 70
    0
  9
$DIMSAH
 70
    0
  9
$DIMBLK1
  1

  9
$DIMBLK2
  1

  9
$DIMSTYLE
  2
STANDARD
  9
$DIMCLRD
 70
    0
  9
$DIMCLRE
 70
    0
  9
$DIMCLRT
 70
    0
  9
$DIMTFAC
 40
1
  9
$DIMGAP
 40
0.625
  9
$DIMJUST
 70
    0
  9
$DIMSD1
 70
    0
  9
$DIMSD2
 70
    0
  9
$DIMTOLJ
 70
    0
  9
$DIMTZIN
 70
    8
  9
$DIMALTZ
 70
    0
  9
$DIMALTTZ
 70
    0
  9
$DIMUPT
 70
    0
  9
$DIMDEC
 70
    2
  9
$DIMTDEC
 70
    2
  9
$DIMALTU
 70
    2
  9
$DIMALTTD
 70
    3
  9
$DIMTXSTY
  7
STANDARD
  9
$DIMAUNIT
 70
    0
  9
$DIMADEC
 70
    0
  9
$DIMALTRND
 40
0
  9
$DIMAZIN
 70
    0
  9
$DIMDSEP
 70
   44
  9
$DIMATFIT
 70
    3
  9
$DIMFRAC
 70
    0
  9
$DIMLDRBLK
  1
STANDARD
  9
$DIMLUNIT
 70
    2
  9
$DIMLWD
 70
   -2
  9
$DIMLWE
 70
   -2
  9
$DIMTMOVE
 70
    0
  9
$DIMFXL
 40
1
  9
$DIMFXLON
 70
    0
  9
$DIMJOGANG
 40
0.7854
  9
$DIMTFILL
 70
    0
  9
$DIMTFILLCLR
 70
    0
  9
$DIMARCSYM
 70
    0
  9
$DIMLTYPE
  6

  9
$DIMLTEX1
  6

  9
$DIMLTEX2
  6

  9
$LUNITS
 70
    2
  9
$LUPREC
 70
    4
  9
$SKETCHINC
 40
1
  9
$FILLETRAD
 40
0
  9
$AUNITS
 70
    0
  9
$AUPREC
 70
    2
  9
$MENU
  1
.
  9
$ELEVATION
 40
0
  9
$PELEVATION
 40
0
  9
$THICKNESS
 40
0
  9
$LIMCHECK
 70
    0
  9
$CHAMFERA
 40
0
  9
$CHAMFERB
 40
0
  9
$CHAMFERC
 40
0
  9
$CHAMFERD
 40
0
  9
$SKPOLY
 70
    0
  9
$USRTIMER
 70
    1
  9
$ANGBASE
 50
0
  9
$ANGDIR
 70
    0
  9
$PDMODE
 70
   34
  9
$PDSIZE
 40
0
  9
$PLINEWID
 40
0
  9
$SPLFRAME
 70
    0
  9
$SPLINETYPE
 70
    2
  9
$SPLINESEGS
 70
    8
  9
$HANDSEED
  5
20000
  9
$SURFTAB1
 70
    6
  9
$SURFTAB2
 70
    6
  9
$SURFTYPE
 70
    6
  9
$SURFU
 70
    6
  9
$SURFV
 70
    6
  9
$UCSBASE
  2

  9
$UCSNAME
  2

  9
$UCSORG
 10
0
 20
0
 30
0
  9
$UCSXDIR
 10
1
 20
0
 30
0
  9
$UCSYDIR
 10
0
 20
1
 30
0
  9
$UCSORTHOREF
  2

  9
$UCSORTHOVIEW
 70
    0
  9
$UCSORGTOP
 10
0
 20
0
 30
0
  9
$UCSORGBOTTOM
 10
0
 20
0
 30
0
  9
$UCSORGLEFT
 10
0
 20
0
 30
0
  9
$UCSORGRIGHT
 10
0
 20
0
 30
0
  9
$UCSORGFRONT
 10
0
 20
0
 30
0
  9
$UCSORGBACK
 10
0
 20
0
 30
0
  9
$PUCSBASE
  2

  9
$PUCSNAME
  2

  9
$PUCSORG
 10
0
 20
0
 30
0
  9
$PUCSXDIR
 10
1
 20
0
 30
0
  9
$PUCSYDIR
 10
0
 20
1
 30
0
  9
$PUCSORTHOREF
  2

  9
$PUCSORTHOVIEW
 70
    0
  9
$PUCSORGTOP
 10
0
 20
0
 30
0
  9
$PUCSORGBOTTOM
 10
0
 20
0
 30
0
  9
$PUCSORGLEFT
 10
0
 20
0
 30
0
  9
$PUCSORGRIGHT
 10
0
 20
0
 30
0
  9
$PUCSORGFRONT
 10
0
 20
0
 30
0
  9
$PUCSORGBACK
 10
0
 20
0
 30
0
  9
$USERI1
 70
    0
  9
$USERI2
 70
    0
  9
$USERI3
 70
    0
  9
$USERI4
 70
    0
  9
$USERI5
 70
    0
  9
$USERR1
 40
0
  9
$USERR2
 40
0
  9
$USERR3
 40
0
  9
$USERR4
 40
0
  9
$USERR5
 40
0
  9
$WORLDVIEW
 70
    1
  9
$SHADEDGE
 70
    3
  9
$SHADEDIF
 70
   70
  9
$TILEMODE
 70
    1
  9
$MAXACTVP
 70
   64
  9
$PINSBASE
 10
0
 20
0
 30
0
  9
$PLIMCHECK
 70
    0
  9
$PEXTMIN
 10
0
 20
0
 30
0
  9
$PEXTMAX
 10
0
 20
0
 30
0
  9
$GRIDMODE
 70
    1
  9
$SNAPSTYLE
 70
    0
  9
$PLIMMIN
 10
0
 20
0
  9
$PLIMMAX
 10
420
 20
297
  9
$UNITMODE
 70
    0
  9
$VISRETAIN
 70
    1
  9
$PLINEGEN
 70
    0
  9
$PSLTSCALE
 70
    1
  9
$TREEDEPTH
 70
 3020
  9
$CMLSTYLE
  2
Standard
  9
$CMLJUST
 70
    0
  9
$CMLSCALE
 40
20
  9
$PROXYGRAPHICS
 70
    1
  9
$MEASUREMENT
 70
    1
  9
$CELWEIGHT
370
   -1
  9
$ENDCAPS
280
    0
  9
$JOINSTYLE
280
    0
  9
$LWDISPLAY
290
    0
  9
$INSUNITS
 70
    4
  9
$HYPERLINKBASE
  1

  9
$STYLESHEET
  1

  9
$XEDIT
290
    1
  9
$CEPSNTYPE
380
    0
  9
$PSTYLEMODE
290
    1
  9
$EXTNAMES
290
    1
  9
$PSVPSCALE
 40
1
  9
$OLESTARTUP
290
    0
  9
$SORTENTS
280
  127
  9
$INDEXCTL
280
    0
  9
$HIDETEXT
280
    1
  9
$XCLIPFRAME
290
    0
  9
$HALOGAP
280
    0
  9
$OBSCOLOR
 70
  257
  9
$OBSLTYPE
280
    0
  9
$INTERSECTIONDISPLAY
280
    0
  9
$INTERSECTIONCOLOR
 70
  257
  9
$DIMASSOC
280
    1
  9
$PROJECTNAME
  1

  9
$CAMERADISPLAY
290
    0
  9
$LENSLENGTH
 40
50
  9
$CAMERAHEIGHT
 40
0
  9
$STEPSPERSEC
 40
2
  9
$STEPSIZE
 40
50
  9
$3DDWFPREC
 40
2
  9
$PSOLWIDTH
 40
5
  9
$PSOLHEIGHT
 40
80
  9
$LOFTANG1
 40
1.570796326794897
  9
$LOFTANG2
 40
1.570796326794897
  9
$LOFTMAG1
 40
0
  9
$LOFTMAG2
 40
0
  9
$LOFTPARAM
 70
    7
  9
$LOFTNORMALS
280
    1
  9
$LATITUDE
 40
1
  9
$LONGITUDE
 40
1
  9
$NORTHDIRECTION
 40
0
  9
$TIMEZONE
 70
-8000
  9
$LIGHTGLYPHDISPLAY
280
    1
  9
$TILEMODELIGHTSYNCH
280
    1
  9
$SOLIDHIST
280
    1
  9
$SHOWHIST
280
    1
  9
$DWFFRAME
280
    2
  9
$DGNFRAME
280
    0
  9
$REALWORLDSCALE
290
    1
  9
$INTERFERECOLOR
 62
    1
  9
$CSHADOW
280
    0
  9
$SHADOWPLANELOCATION
 40
0
  0
ENDSEC
  0
SECTION
  2
CLASSES
  0
ENDSEC
  0
SECTION
  2
TABLES
  0
TABLE
  2
VPORT
  5
8
330
0
100
AcDbSymbolTable
 70
    1
  0
VPORT
  5
31
330
2
100
AcDbSymbolTableRecord
100
AcDbViewportTableRecord
  2
*ACTIVE
 70
    0
 10
0
 20
0
 11
1
 21
1
 12
240.3077057050433
 22
64.26436511031031
 13
0
 23
0
 14
10
 24
10
 15
10
 25
10
 16
0
 26
0
 36
1
 17
0
 27
0
 37
0
 40
195.2998613458721
 41
1.836639439906651
 42
50
 43
0
 44
0
 50
0
 51
0
 71
    0
 72
  100
 73
    1
 74
    3
 75
    0
 76
    1
 77
    0
 78
    0
281
    0
 65
    1
110
0
120
0
130
0
111
1
121
0
131
0
112
0
122
1
132
0
 79
    0
146
0
348
10020
 60
    7
 61
    5
292
1
282
    1
141
0
142
0
 63
  250
421
3358443
  0
ENDTAB
  0
TABLE
  2
LTYPE
  5
5
330
0
100
AcDbSymbolTable
 70
    4
  0
LTYPE
  5
14
330
5
100
AcDbSymbolTableRecord
100
AcDbLinetypeTableRecord
  2
ByBlock
 70
    0
  3

 72
   65
 73
    0
 40
0
  0
LTYPE
  5
15
330
5
100
AcDbSymbolTableRecord
100
AcDbLinetypeTableRecord
  2
ByLayer
 70
    0
  3

 72
   65
 73
    0
 40
0
  0
LTYPE
  5
16
330
5
100
AcDbSymbolTableRecord
100
AcDbLinetypeTableRecord
  2
Continuous
 70
    0
  3
Solid line
 72
   65
 73
    0
 40
0
  0
LTYPE
  5
32
330
5
100
AcDbSymbolTableRecord
100
AcDbLinetypeTableRecord
  2
DOT
 70
    0
  3
Dot . . . . . . . . . . . . . . . . . . . . . .
 72
   65
 73
    2
 40
6.35
 49
0
 74
    0
 49
-6.35
 74
    0
  0
LTYPE
  5
33
330
5
100
AcDbSymbolTableRecord
100
AcDbLinetypeTableRecord
  2
DOTTINY
 70
    0
  3
Dot (.15x) .....................................
 72
   65
 73
    2
 40
0.9525
 49
0
 74
    0
 49
-0.9525
 74
    0
  0
LTYPE
  5
34
330
5
100
AcDbSymbolTableRecord
100
AcDbLinetypeTableRecord
  2
DOT2
 70
    0
  3
Dot (.5x) .....................................
 72
   65
 73
    2
 40
3.175
 49
0
 74
    0
 49
-3.175
 74
    0
  0
LTYPE
  5
35
330
5
100
AcDbSymbolTableRecord
100
AcDbLinetypeTableRecord
  2
DOTX2
 70
    0
  3
Dot (2x) .  .  .  .  .  .  .  .  .  .  .  .  .
 72
   65
 73
    2
 40
12.7
 49
0
 74
    0
 49
-12.7
 74
    0
  0
LTYPE
  5
36
330
5
100
AcDbSymbolTableRecord
100
AcDbLinetypeTableRecord
  2
DASHED
 70
    0
  3
Dashed _ _ _ _ _ _ _ _ _ _ _ _ _ _ _ _ _
 72
   65
 73
    2
 40
19.05
 49
12.7
 74
    0
 49
-6.35
 74
    0
  0
LTYPE
  5
37
330
5
100
AcDbSymbolTableRecord
100
AcDbLinetypeTableRecord
  2
DASHEDTINY
 70
    0
  3
Dashed (.15x) _ _ _ _ _ _ _ _ _ _ _ _ _ _ _ _ _
 72
   65
 73
    2
 40
2.8575
 49
1.905
 74
    0
 49
-0.9525
 74
    0
  0
LTYPE
  5
38
330
5
100
AcDbSymbolTableRecord
100
AcDbLinetypeTableRecord
  2
DASHED2
 70
    0
  3
Dashed (.5x) _ _ _ _ _ _ _ _ _ _ _ _ _ _ _ _ _
 72
   65
 73
    2
 40
9.524999999999999
 49
6.35
 74
    0
 49
-3.175
 74
    0
  0
LTYPE
  5
39
330
5
100
AcDbSymbolTableRecord
100
AcDbLinetypeTableRecord
  2
DASHEDX2
 70
    0
  3
Dashed (2x) ____  ____  ____  ____  ____  ___
 72
   65
 73
    2
 40
38.09999999999999
 49
25.4
 74
    0
 49
-12.7
 74
    0
  0
LTYPE
  5
3A
330
5
100
AcDbSymbolTableRecord
100
AcDbLinetypeTableRecord
  2
DASHDOT
 70
    0
  3
Dash dot __ . __ . __ . __ . __ . __ . __ . __
 72
   65
 73
    4
 40
25.4
 49
12.7
 74
    0
 49
-6.35
 74
    0
 49
0
 74
    0
 49
-6.35
 74
    0
  0
LTYPE
  5
3B
330
5
100
AcDbSymbolTableRecord
100
AcDbLinetypeTableRecord
  2
DASHDOTTINY
 70
    0
  3
Dash dot (.15x) _._._._._._._._._._._._._._._.
 72
   65
 73
    4
 40
3.81
 49
1.905
 74
    0
 49
-0.9525
 74
    0
 49
0
 74
    0
 49
-0.9525
 74
    0
  0
LTYPE
  5
3C
330
5
100
AcDbSymbolTableRecord
100
AcDbLinetypeTableRecord
  2
DASHDOT2
 70
    0
  3
Dash dot (.5x) _._._._._._._._._._._._._._._.
 72
   65
 73
    4
 40
12.7
 49
6.35
 74
    0
 49
-3.175
 74
    0
 49
0
 74
    0
 49
-3.175
 74
    0
  0
LTYPE
  5
3D
330
5
100
AcDbSymbolTableRecord
100
AcDbLinetypeTableRecord
  2
DASHDOTX2
 70
    0
  3
Dash dot (2x) ____  .  ____  .  ____  .  ___
 72
   65
 73
    4
 40
50.8
 49
25.4
 74
    0
 49
-12.7
 74
    0
 49
0
 74
    0
 49
-12.7
 74
    0
  0
LTYPE
  5
3E
330
5
100
AcDbSymbolTableRecord
100
AcDbLinetypeTableRecord
  2
DIVIDE
 70
    0
  3
Divide ____ . . ____ . . ____ . . ____ . . ____
 72
   65
 73
    6
 40
31.75
 49
12.7
 74
    0
 49
-6.35
 74
    0
 49
0
 74
    0
 49
-6.35
 74
    0
 49
0
 74
    0
 49
-6.35
 74
    0
  0
LTYPE
  5
3F
330
5
100
AcDbSymbolTableRecord
100
AcDbLinetypeTableRecord
  2
DIVIDETINY
 70
    0
  3
Divide (.15x) __..__..__..__..__..__..__..__.._
 72
   65
 73
    6
 40
4.7625
 49
1.905
 74
    0
 49
-0.9525
 74
    0
 49
0
 74
    0
 49
-0.9525
 74
    0
 49
0
 74
    0
 49
-0.9525
 74
    0
  0
LTYPE
  5
40
330
5
100
AcDbSymbolTableRecord
100
AcDbLinetypeTableRecord
  2
DIVIDE2
 70
    0
  3
Divide (.5x) __..__..__..__..__..__..__..__.._
 72
   65
 73
    6
 40
15.875
 49
6.35
 74
    0
 49
-3.175
 74
    0
 49
0
 74
    0
 49
-3.175
 74
    0
 49
0
 74
    0
 49
-3.175
 74
    0
  0
LTYPE
  5
41
330
5
100
AcDbSymbolTableRecord
100
AcDbLinetypeTableRecord
  2
DIVIDEX2
 70
    0
  3
Divide (2x) ________  .  .  ________  .  .  _
 72
   65
 73
    6
 40
63.5
 49
25.4
 74
    0
 49
-12.7
 74
    0
 49
0
 74
    0
 49
-12.7
 74
    0
 49
0
 74
    0
 49
-12.7
 74
    0
  0
LTYPE
  5
42
330
5
100
AcDbSymbolTableRecord
100
AcDbLinetypeTableRecord
  2
BORDER
 70
    0
  3
Border __ __ . __ __ . __ __ . __ __ . __ __ .
 72
   65
 73
    6
 40
44.45
 49
12.7
 74
    0
 49
-6.35
 74
    0
 49
12.7
 74
    0
 49
-6.35
 74
    0
 49
0
 74
    0
 49
-6.35
 74
    0
  0
LTYPE
  5
43
330
5
100
AcDbSymbolTableRecord
100
AcDbLinetypeTableRecord
  2
BORDERTINY
 70
    0
  3
Border (.15x) __.__.__.__.__.__.__.__.__.__.__.
 72
   65
 73
    6
 40
6.6675
 49
1.905
 74
    0
 49
-0.9525
 74
    0
 49
1.905
 74
    0
 49
-0.9525
 74
    0
 49
0
 74
    0
 49
-0.9525
 74
    0
  0
LTYPE
  5
44
330
5
100
AcDbSymbolTableRecord
100
AcDbLinetypeTableRecord
  2
BORDER2
 70
    0
  3
Border (.5x) __.__.__.__.__.__.__.__.__.__.__.
 72
   65
 73
    6
 40
22.225
 49
6.35
 74
    0
 49
-3.175
 74
    0
 49
6.35
 74
    0
 49
-3.175
 74
    0
 49
0
 74
    0
 49
-3.175
 74
    0
  0
LTYPE
  5
45
330
5
100
AcDbSymbolTableRecord
100
AcDbLinetypeTableRecord
  2
BORDERX2
 70
    0
  3
Border (2x) ____  ____  .  ____  ____  .  ___
 72
   65
 73
    6
 40
88.89999999999999
 49
25.4
 74
    0
 49
-12.7
 74
    0
 49
25.4
 74
    0
 49
-12.7
 74
    0
 49
0
 74
    0
 49
-12.7
 74
    0
  0
LTYPE
  5
46
330
5
100
AcDbSymbolTableRecord
100
AcDbLinetypeTableRecord
  2
CENTER
 70
    0
  3
Center ____ _ ____ _ ____ _ ____ _ ____ _ ____
 72
   65
 73
    4
 40
50.8
 49
31.75
 74
    0
 49
-6.35
 74
    0
 49
6.35
 74
    0
 49
-6.35
 74
    0
  0
LTYPE
  5
47
330
5
100
AcDbSymbolTableRecord
100
AcDbLinetypeTableRecord
  2
CENTERTINY
 70
    0
  3
Center (.15x) ___ _ ___ _ ___ _ ___ _ ___ _ ___
 72
   65
 73
    4
 40
7.619999999999999
 49
4.7625
 74
    0
 49
-0.9525
 74
    0
 49
0.9525
 74
    0
 49
-0.9525
 74
    0
  0
LTYPE
  5
48
330
5
100
AcDbSymbolTableRecord
100
AcDbLinetypeTableRecord
  2
CENTER2
 70
    0
  3
Center (.5x) ___ _ ___ _ ___ _ ___ _ ___ _ ___
 72
   65
 73
    4
 40
28.575
 49
19.05
 74
    0
 49
-3.175
 74
    0
 49
3.175
 74
    0
 49
-3.175
 74
    0
  0
LTYPE
  5
49
330
5
100
AcDbSymbolTableRecord
100
AcDbLinetypeTableRecord
  2
CENTERX2
 70
    0
  3
Center (2x) ________  __  ________  __  _____
 72
   65
 73
    4
 40
101.6
 49
63.5
 74
    0
 49
-12.7
 74
    0
 49
12.7
 74
    0
 49
-12.7
 74
    0
  0
ENDTAB
  0
TABLE
  2
LAYER
  5
2
330
0
100
AcDbSymbolTable
 70
    1
  0
LAYER
  5
10
330
2
100
AcDbSymbolTableRecord
100
AcDbLayerTableRecord
  2
0
 70
    1
 62
    7
  6
CONTINUOUS
370
    0
390
F
  0
LAYER
  5
4A
330
2
100
AcDbSymbolTableRecord
100
AcDbLayerTableRecord
  2
Dimensions
 70
    0
 62
    6
  6
CONTINUOUS
370
    0
390
F
  0
LAYER
  5
4B
330
2
100
AcDbSymbolTableRecord
100
AcDbLayerTableRecord
  2
Left
 70
    4
 62
    5
  6
CONTINUOUS
370
    0
390
F
  0
LAYER
  5
4C
330
2
100
AcDbSymbolTableRecord
100
AcDbLayerTableRecord
  2
Right
 70
    4
 62
    3
  6
CONTINUOUS
370
    0
390
F
  0
LAYER
  5
4D
330
2
100
AcDbSymbolTableRecord
100
AcDbLayerTableRecord
  2
sketch
 70
    4
 62
    7
  6
CONTINUOUS
370
    0
390
F
  0
ENDTAB
  0
TABLE
  2
STYLE
  5
3
330
0
100
AcDbSymbolTable
 70
    3
  0
STYLE
  5
4E
330
2
100
AcDbSymbolTableRecord
100
AcDbTextStyleTableRecord
  2
STANDARD
 70
    0
 40
0
 41
1
 50
0
 71
    0
 42
1
  3
STANDARD
  4

  0
ENDTAB
  0
TABLE
  2
VIEW
  5
6
330
0
100
AcDbSymbolTable
 70
    0
  0
ENDTAB
  0
TABLE
  2
UCS
  5
7
330
0
100
AcDbSymbolTable
 70
    0
  0
ENDTAB
  0
TABLE
  2
APPID
  5
9
330
0
100
AcDbSymbolTable
 70
    1
  0
APPID
  5
12
330
9
100
AcDbSymbolTableRecord
100
AcDbRegAppTableRecord
  2
ACAD
 70
    0
  0
APPID
  5
4F
330
9
100
AcDbSymbolTableRecord
100
AcDbRegAppTableRecord
  2
LibreCad
 70
    0
  0
ENDTAB
  0
TABLE
  2
DIMSTYLE
  5
A
330
0
100
AcDbSymbolTable
 70
    1
100
AcDbDimStyleTable
 71
    1
  0
DIMSTYLE
105
50
330
A
100
AcDbSymbolTableRecord
100
AcDbDimStyleTableRecord
  2
Standard
 70
    0
 40
1
 41
2.5
 42
0.625
 43
0.38
 44
1.25
 45
0
 46
0
 47
0
 48
0
 49
1
140
2.5
141
0.09
142
0
143
25.4
144
1
145
0
146
1
147
0.625
148
0
 71
    0
 72
    0
 73
    0
 74
    1
 75
    0
 76
    0
 77
    0
 78
    8
 79
    0
170
    0
171
    2
172
    0
173
    0
174
    0
175
    0
176
    0
177
    0
178
    0
179
    0
271
    2
272
    4
273
    2
274
    2
275
    0
276
    0
277
    2
278
   44
279
    0
280
    0
281
    0
282
    0
283
    1
284
    0
285
    0
286
    0
288
    0
289
    3
340
STANDARD
341

371
   -2
372
   -2
  0
ENDTAB
  0
TABLE
  2
BLOCK_RECORD
  5
1
330
0
100
AcDbSymbolTable
 70
    2
  0
BLOCK_RECORD
  5
1F
330
1
100
AcDbSymbolTableRecord
100
AcDbBlockTableRecord
  2
*Model_Space
 70
    0
280
    1
281
    0
  0
BLOCK_RECORD
  5
1E
330
1
100
AcDbSymbolTableRecord
100
AcDbBlockTableRecord
  2
*Paper_Space
 70
    0
280
    1
281
    0
  0
BLOCK_RECORD
  5
51
330
1
100
AcDbSymbolTableRecord
100
AcDbBlockTableRecord
  2
*D1
 70
    0
280
    1
281
    0
  0
BLOCK_RECORD
  5
54
330
1
100
AcDbSymbolTableRecord
100
AcDbBlockTableRecord
  2
*D3
 70
    0
280
    1
281
    0
  0
BLOCK_RECORD
  5
57
330
1
100
AcDbSymbolTableRecord
100
AcDbBlockTableRecord
  2
*D2
 70
    0
280
    1
281
    0
  0
BLOCK_RECORD
  5
5A
330
1
100
AcDbSymbolTableRecord
100
AcDbBlockTableRecord
  2
b49552adcf9fb06611f1e3e2cfa053504bc49d40_switch
 70
    0
280
    1
281
    0
  0
BLOCK_RECORD
  5
5D
330
1
100
AcDbSymbolTableRecord
100
AcDbBlockTableRecord
  2
RP PICO
 70
    0
280
    1
281
    0
  0
ENDTAB
  0
ENDSEC
  0
SECTION
  2
BLOCKS
  0
BLOCK
  5
20
330
1F
100
AcDbEntity
  8
0
100
AcDbBlockBegin
  2
*Model_Space
 70
    0
 10
0
 20
0
 30
0
  3
*Model_Space
  1

  0
ENDBLK
  5
21
330
1F
100
AcDbEntity
  8
0
100
AcDbBlockEnd
  0
BLOCK
  5
1C
330
1B
100
AcDbEntity
  8
0
100
AcDbBlockBegin
  2
*Paper_Space
 70
    0
 10
0
 20
0
 30
0
  3
*Paper_Space
  1

  0
ENDBLK
  5
1D
330
1F
100
AcDbEntity
  8
0
100
AcDbBlockEnd
  0
BLOCK
  5
52
330
51
100
AcDbEntity
  8
0
100
AcDbBlockBegin
  2
*D1
 70
    1
 10
0
 20
0
  3
*D1
  1

  0
LINE
  5
60
100
AcDbEntity
  8
Dimensions
  6
CONTINUOUS
 62
    7
370
    0
100
AcDbLine
 10
24.1496
 20
26.74350000000002
 11
41.5890589582499
 21
33.81667744801959
  0
LINE
  5
61
100
AcDbEntity
  8
Dimensions
  6
CONTINUOUS
 62
    7
370
    0
100
AcDbLine
 10
41.5890589582499
 20
33.81667744801959
 11
60.84220181756374
 21
33.81667744801959
  0
LINE
  5
62
100
AcDbEntity
  8
Dimensions
  6
CONTINUOUS
 62
    7
370
    0
100
AcDbLine
 10
60.84220181756374
 20
33.81667744801959
 11
42.46502300463693
 21
33.81667744801959
  0
LINE
  5
63
100
AcDbEntity
  8
Dimensions
  6
CONTINUOUS
 62
    7
370
    0
100
AcDbLine
 10
42.46502300463693
 20
33.81667744801959
 11
42.76558434036237
 21
33.81667744801959
  0
SOLID
  5
64
100
AcDbEntity
  8
Dimensions
  6
CONTINUOUS
 62
    7
370
    0
100
AcDbTrace
 10
24.1496
 20
26.74350000000002
 30
0
 11
26.30984386377965
 21
28.06888272408367
 31
0
 12
26.62276319917723
 22
27.29735621467356
 32
0
 13
26.62276319917723
 23
27.29735621467356
 33
0
  0
ENDBLK
  5
53
330
51
100
AcDbEntity
  8
0
100
AcDbBlockEnd
  0
BLOCK
  5
55
330
54
100
AcDbEntity
  8
0
100
AcDbBlockBegin
  2
*D3
 70
    1
 10
0
 20
0
  3
*D3
  1

  0
LINE
  5
65
100
AcDbEntity
  8
Dimensions
  6
CONTINUOUS
 62
    7
370
    0
100
AcDbLine
 10
352.9535017697674
 20
15.77350000000001
 11
347.4105898962837
 21
30.75946275032855
  0
LINE
  5
66
100
AcDbEntity
  8
Dimensions
  6
CONTINUOUS
 62
    7
370
    0
100
AcDbLine
 10
347.4105898962837
 20
30.75946275032855
 11
306.370776200222
 21
30.75946275032855
  0
SOLID
  5
67
100
AcDbEntity
  8
Dimensions
  6
CONTINUOUS
 62
    7
370
    0
100
AcDbTrace
 10
352.9535017697674
 20
15.77350000000001
 30
0
 11
351.6958067194054
 21
17.97383999113593
 31
0
 12
352.4766738311049
 22
18.26266211469
 32
0
 13
352.4766738311049
 23
18.26266211469
 33
0
  0
ENDBLK
  5
56
330
54
100
AcDbEntity
  8
0
100
AcDbBlockEnd
  0
BLOCK
  5
58
330
57
100
AcDbEntity
  8
0
100
AcDbBlockBegin
  2
*D2
 70
    1
 10
0
 20
0
  3
*D2
  1

  0
LINE
  5
68
100
AcDbEntity
  8
Dimensions
  6
CONTINUOUS
 62
    7
370
    0
100
AcDbLine
 10
-10.5
 20
15.77349999999998
 11
-18.94440011778096
 21
26.62262289279067
  0
LINE
  5
69
100
AcDbEntity
  8
Dimensions
  6
CONTINUOUS
 62
    7
370
    0
100
AcDbLine
 10
-18.94440011778096
 20
26.62262289279067
 11
-59.91884128161782
 21
26.62262289279067
  0
SOLID
  5
6A
100
AcDbEntity
  8
Dimensions
  6
CONTINUOUS
 62
    7
370
    0
100
AcDbTrace
 10
-10.5
 20
15.77349999999998
 30
0
 11
-12.36405747985868
 21
17.49064374124005
 31
0
 12
-11.7070488486164
 22
18.00202552001335
 32
0
 13
-11.7070488486164
 23
18.00202552001335
 33
0
  0
ENDBLK
  5
59
330
57
100
AcDbEntity
  8
0
100
AcDbBlockEnd
  0
BLOCK
  5
5B
330
5A
100
AcDbEntity
  8
0
100
AcDbBlockBegin
  2
b49552adcf9fb06611f1e3e2cfa053504bc49d40_switch
 70
    0
 10
0
 20
0
  3
b49552adcf9fb06611f1e3e2cfa053504bc49d40_switch
  1

  0
LINE
  5
6B
100
AcDbEntity
  8
0
  6
ByLayer
 62
    0
370
   -1
100
AcDbLine
 10
386.722
 20
162.888
 11
387.114
 21
162.873
  0
LINE
  5
6C
100
AcDbEntity
  8
0
  6
ByLayer
 62
    0
370
   -1
100
AcDbLine
 10
387.114
 20
162.873
 11
387.502
 21
162.826
  0
LINE
  5
6D
100
AcDbEntity
  8
0
  6
ByLayer
 62
    0
370
   -1
100
AcDbLine
 10
387.502
 20
162.826
 11
387.89
 21
162.75
  0
LINE
  5
6E
100
AcDbEntity
  8
0
  6
ByLayer
 62
    0
370
   -1
100
AcDbLine
 10
387.89
 20
162.75
 11
388.267
 21
162.644
  0
LINE
  5
6F
100
AcDbEntity
  8
0
  6
ByLayer
 62
    0
370
   -1
100
AcDbLine
 10
388.267
 20
162.644
 11
388.634
 21
162.508
  0
LINE
  5
70
100
AcDbEntity
  8
0
  6
ByLayer
 62
    0
370
   -1
100
AcDbLine
 10
388.634
 20
162.508
 11
388.99
 21
162.344
  0
LINE
  5
71
100
AcDbEntity
  8
0
  6
ByLayer
 62
    0
370
   -1
100
AcDbLine
 10
388.99
 20
162.344
 11
389.333
 21
162.153
  0
LINE
  5
72
100
AcDbEntity
  8
0
  6
ByLayer
 62
    0
370
   -1
100
AcDbLine
 10
389.333
 20
162.153
 11
389.661
 21
161.933
  0
LINE
  5
73
100
AcDbEntity
  8
0
  6
ByLayer
 62
    0
370
   -1
100
AcDbLine
 10
389.661
 20
161.933
 11
389.968
 21
161.691
  0
LINE
  5
74
100
AcDbEntity
  8
0
  6
ByLayer
 62
    0
370
   -1
100
AcDbLine
 10
389.968
 20
161.691
 11
390.257
 21
161.423
  0
LINE
  5
75
100
AcDbEntity
  8
0
  6
ByLayer
 62
    0
370
   -1
100
AcDbLine
 10
390.257
 20
161.423
 11
390.525
 21
161.135
  0
LINE
  5
76
100
AcDbEntity
  8
0
  6
ByLayer
 62
    0
370
   -1
100
AcDbLine
 10
390.525
 20
161.135
 11
390.765
 21
160.827
  0
LINE
  5
77
100
AcDbEntity
  8
0
  6
ByLayer
 62
    0
370
   -1
100
AcDbLine
 10
390.765
 20
160.827
 11
390.984
 21
160.502
  0
LINE
  5
78
100
AcDbEntity
  8
0
  6
ByLayer
 62
    0
370
   -1
100
AcDbLine
 10
390.984
 20
160.502
 11
391.178
 21
160.158
  0
LINE
  5
79
100
AcDbEntity
  8
0
  6
ByLayer
 62
    0
370
   -1
100
AcDbLine
 10
391.178
 20
160.158
 11
391.34
 21
159.801
  0
LINE
  5
7A
100
AcDbEntity
  8
0
  6
ByLayer
 62
    0
370
   -1
100
AcDbLine
 10
391.34
 20
159.801
 11
391.477
 21
159.434
  0
LINE
  5
7B
100
AcDbEntity
  8
0
  6
ByLayer
 62
    0
370
   -1
100
AcDbLine
 10
391.477
 20
159.434
 11
391.583
 21
159.056
  0
LINE
  5
7C
100
AcDbEntity
  8
0
  6
ByLayer
 62
    0
370
   -1
100
AcDbLine
 10
391.583
 20
159.056
 11
391.657
 21
158.671
  0
LINE
  5
7D
100
AcDbEntity
  8
0
  6
ByLayer
 62
    0
370
   -1
100
AcDbLine
 10
391.657
 20
158.671
 11
391.707
 21
158.282
  0
LINE
  5
7E
100
AcDbEntity
  8
0
  6
ByLayer
 62
    0
370
   -1
100
AcDbLine
 10
391.707
 20
158.282
 11
391.721
 21
157.887
  0
LINE
  5
7F
100
AcDbEntity
  8
0
  6
ByLayer
 62
    0
370
   -1
100
AcDbLine
 10
391.721
 20
157.887
 11
391.721
 21
5.177300000000002
  0
LINE
  5
80
100
AcDbEntity
  8
0
  6
ByLayer
 62
    0
370
   -1
100
AcDbLine
 10
391.721
 20
5.177300000000002
 11
391.707
 21
4.783169999999998
  0
LINE
  5
81
100
AcDbEntity
  8
0
  6
ByLayer
 62
    0
370
   -1
100
AcDbLine
 10
391.707
 20
4.783169999999998
 11
391.657
 21
4.393180000000001
  0
LINE
  5
82
100
AcDbEntity
  8
0
  6
ByLayer
 62
    0
370
   -1
100
AcDbLine
 10
391.657
 20
4.393180000000001
 11
391.583
 21
4.008719999999997
  0
LINE
  5
83
100
AcDbEntity
  8
0
  6
ByLayer
 62
    0
370
   -1
100
AcDbLine
 10
391.583
 20
4.008719999999997
 11
391.477
 21
3.63252
  0
LINE
  5
84
100
AcDbEntity
  8
0
  6
ByLayer
 62
    0
370
   -1
100
AcDbLine
 10
391.477
 20
3.63252
 11
391.34
 21
3.263189999999994
  0
LINE
  5
85
100
AcDbEntity
  8
0
  6
ByLayer
 62
    0
370
   -1
100
AcDbLine
 10
391.34
 20
3.263189999999994
 11
391.178
 21
2.906279999999995
  0
LINE
  5
86
100
AcDbEntity
  8
0
  6
ByLayer
 62
    0
370
   -1
100
AcDbLine
 10
391.178
 20
2.906279999999995
 11
390.984
 21
2.564530000000005
  0
LINE
  5
87
100
AcDbEntity
  8
0
  6
ByLayer
 62
    0
370
   -1
100
AcDbLine
 10
390.984
 20
2.564530000000005
 11
390.765
 21
2.237930000000006
  0
LINE
  5
88
100
AcDbEntity
  8
0
  6
ByLayer
 62
    0
370
   -1
100
AcDbLine
 10
390.765
 20
2.237930000000006
 11
390.525
 21
1.929249999999996
  0
LINE
  5
89
100
AcDbEntity
  8
0
  6
ByLayer
 62
    0
370
   -1
100
AcDbLine
 10
390.525
 20
1.929249999999996
 11
390.257
 21
1.641239999999996
  0
LINE
  5
8A
100
AcDbEntity
  8
0
  6
ByLayer
 62
    0
370
   -1
100
AcDbLine
 10
390.257
 20
1.641239999999996
 11
389.968
 21
1.375280000000004
  0
LINE
  5
8B
100
AcDbEntity
  8
0
  6
ByLayer
 62
    0
370
   -1
100
AcDbLine
 10
389.968
 20
1.375280000000004
 11
389.661
 21
1.131370000000004
  0
LINE
  5
8C
100
AcDbEntity
  8
0
  6
ByLayer
 62
    0
370
   -1
100
AcDbLine
 10
389.661
 20
1.131370000000004
 11
389.333
 21
0.9122619999999984
  0
LINE
  5
8D
100
AcDbEntity
  8
0
  6
ByLayer
 62
    0
370
   -1
100
AcDbLine
 10
389.333
 20
0.9122619999999984
 11
388.99
 21
0.7220939999999985
  0
LINE
  5
8E
100
AcDbEntity
  8
0
  6
ByLayer
 62
    0
370
   -1
100
AcDbLine
 10
388.99
 20
0.7220939999999985
 11
388.634
 21
0.5567290000000042
  0
LINE
  5
8F
100
AcDbEntity
  8
0
  6
ByLayer
 62
    0
370
   -1
100
AcDbLine
 10
388.634
 20
0.5567290000000042
 11
388.267
 21
0.4203030000000041
  0
LINE
  5
90
100
AcDbEntity
  8
0
  6
ByLayer
 62
    0
370
   -1
100
AcDbLine
 10
388.267
 20
0.4203030000000041
 11
387.89
 21
0.3141930000000031
  0
LINE
  5
91
100
AcDbEntity
  8
0
  6
ByLayer
 62
    0
370
   -1
100
AcDbLine
 10
387.89
 20
0.3141930000000031
 11
387.502
 21
0.2384009999999961
  0
LINE
  5
92
100
AcDbEntity
  8
0
  6
ByLayer
 62
    0
370
   -1
100
AcDbLine
 10
387.502
 20
0.2384009999999961
 11
387.114
 21
0.1915469999999999
  0
LINE
  5
93
100
AcDbEntity
  8
0
  6
ByLayer
 62
    0
370
   -1
100
AcDbLine
 10
387.114
 20
0.1915469999999999
 11
386.722
 21
0.1763890000000004
  0
LINE
  5
94
100
AcDbEntity
  8
0
  6
ByLayer
 62
    0
370
   -1
100
AcDbLine
 10
386.722
 20
0.1763890000000004
 11
5.09598
 21
0.1763890000000004
  0
LINE
  5
95
100
AcDbEntity
  8
0
  6
ByLayer
 62
    0
370
   -1
100
AcDbLine
 10
5.09598
 20
0.1763890000000004
 11
4.70186
 21
0.1915469999999999
  0
LINE
  5
96
100
AcDbEntity
  8
0
  6
ByLayer
 62
    0
370
   -1
100
AcDbLine
 10
4.70186
 20
0.1915469999999999
 11
4.3119
 21
0.2384009999999961
  0
LINE
  5
97
100
AcDbEntity
  8
0
  6
ByLayer
 62
    0
370
   -1
100
AcDbLine
 10
4.3119
 20
0.2384009999999961
 11
3.9274
 21
0.3141930000000031
  0
LINE
  5
98
100
AcDbEntity
  8
0
  6
ByLayer
 62
    0
370
   -1
100
AcDbLine
 10
3.9274
 20
0.3141930000000031
 11
3.54983
 21
0.4203030000000041
  0
LINE
  5
99
100
AcDbEntity
  8
0
  6
ByLayer
 62
    0
370
   -1
100
AcDbLine
 10
3.54983
 20
0.4203030000000041
 11
3.18189
 21
0.5567290000000042
  0
LINE
  5
9A
100
AcDbEntity
  8
0
  6
ByLayer
 62
    0
370
   -1
100
AcDbLine
 10
3.18189
 20
0.5567290000000042
 11
2.82498
 21
0.7220939999999985
  0
LINE
  5
9B
100
AcDbEntity
  8
0
  6
ByLayer
 62
    0
370
   -1
100
AcDbLine
 10
2.82498
 20
0.7220939999999985
 11
2.48185
 21
0.9122619999999984
  0
LINE
  5
9C
100
AcDbEntity
  8
0
  6
ByLayer
 62
    0
370
   -1
100
AcDbLine
 10
2.48185
 20
0.9122619999999984
 11
2.15663
 21
1.131370000000004
  0
LINE
  5
9D
100
AcDbEntity
  8
0
  6
ByLayer
 62
    0
370
   -1
100
AcDbLine
 10
2.15663
 20
1.131370000000004
 11
1.84795
 21
1.375280000000004
  0
LINE
  5
9E
100
AcDbEntity
  8
0
  6
ByLayer
 62
    0
370
   -1
100
AcDbLine
 10
1.84795
 20
1.375280000000004
 11
1.55994
 21
1.641239999999996
  0
LINE
  5
9F
100
AcDbEntity
  8
0
  6
ByLayer
 62
    0
370
   -1
100
AcDbLine
 10
1.55994
 20
1.641239999999996
 11
1.2926
 21
1.929249999999996
  0
LINE
  5
A0
100
AcDbEntity
  8
0
  6
ByLayer
 62
    0
370
   -1
100
AcDbLine
 10
1.2926
 20
1.929249999999996
 11
1.05006
 21
2.237930000000006
  0
LINE
  5
A1
100
AcDbEntity
  8
0
  6
ByLayer
 62
    0
370
   -1
100
AcDbLine
 10
1.05006
 20
2.237930000000006
 11
0.8309569999999999
 21
2.564530000000005
  0
LINE
  5
A2
100
AcDbEntity
  8
0
  6
ByLayer
 62
    0
370
   -1
100
AcDbLine
 10
0.8309569999999999
 20
2.564530000000005
 11
0.63941
 21
2.906279999999995
  0
LINE
  5
A3
100
AcDbEntity
  8
0
  6
ByLayer
 62
    0
370
   -1
100
AcDbLine
 10
0.63941
 20
2.906279999999995
 11
0.4754240000000001
 21
3.263189999999994
  0
LINE
  5
A4
100
AcDbEntity
  8
0
  6
ByLayer
 62
    0
370
   -1
100
AcDbLine
 10
0.4754240000000001
 20
3.263189999999994
 11
0.3389980000000001
 21
3.63252
  0
LINE
  5
A5
100
AcDbEntity
  8
0
  6
ByLayer
 62
    0
370
   -1
100
AcDbLine
 10
0.3389980000000001
 20
3.63252
 11
0.232888
 21
4.008719999999997
  0
LINE
  5
A6
100
AcDbEntity
  8
0
  6
ByLayer
 62
    0
370
   -1
100
AcDbLine
 10
0.232888
 20
4.008719999999997
 11
0.1570969999999998
 21
4.393180000000001
  0
LINE
  5
A7
100
AcDbEntity
  8
0
  6
ByLayer
 62
    0
370
   -1
100
AcDbLine
 10
0.1570969999999998
 20
4.393180000000001
 11
0.1102430000000001
 21
4.783169999999998
  0
LINE
  5
A8
100
AcDbEntity
  8
0
  6
ByLayer
 62
    0
370
   -1
100
AcDbLine
 10
0.1102430000000001
 20
4.783169999999998
 11
0.09508459999999985
 21
5.177300000000002
  0
LINE
  5
A9
100
AcDbEntity
  8
0
  6
ByLayer
 62
    0
370
   -1
100
AcDbLine
 10
0.09508459999999985
 20
5.177300000000002
 11
0.09508459999999985
 21
157.887
  0
LINE
  5
AA
100
AcDbEntity
  8
0
  6
ByLayer
 62
    0
370
   -1
100
AcDbLine
 10
0.09508459999999985
 20
157.887
 11
0.1102430000000001
 21
158.282
  0
LINE
  5
AB
100
AcDbEntity
  8
0
  6
ByLayer
 62
    0
370
   -1
100
AcDbLine
 10
0.1102430000000001
 20
158.282
 11
0.1570969999999998
 21
158.671
  0
LINE
  5
AC
100
AcDbEntity
  8
0
  6
ByLayer
 62
    0
370
   -1
100
AcDbLine
 10
0.1570969999999998
 20
158.671
 11
0.232888
 21
159.056
  0
LINE
  5
AD
100
AcDbEntity
  8
0
  6
ByLayer
 62
    0
370
   -1
100
AcDbLine
 10
0.232888
 20
159.056
 11
0.3389980000000001
 21
159.434
  0
LINE
  5
AE
100
AcDbEntity
  8
0
  6
ByLayer
 62
    0
370
   -1
100
AcDbLine
 10
0.3389980000000001
 20
159.434
 11
0.4754240000000001
 21
159.801
  0
LINE
  5
AF
100
AcDbEntity
  8
0
  6
ByLayer
 62
    0
370
   -1
100
AcDbLine
 10
0.4754240000000001
 20
159.801
 11
0.63941
 21
160.158
  0
LINE
  5
B0
100
AcDbEntity
  8
0
  6
ByLayer
 62
    0
370
   -1
100
AcDbLine
 10
0.63941
 20
160.158
 11
0.8309569999999999
 21
160.502
  0
LINE
  5
B1
100
AcDbEntity
  8
0
  6
ByLayer
 62
    0
370
   -1
100
AcDbLine
 10
0.8309569999999999
 20
160.502
 11
1.05006
 21
160.827
  0
LINE
  5
B2
100
AcDbEntity
  8
0
  6
ByLayer
 62
    0
370
   -1
100
AcDbLine
 10
1.05006
 20
160.827
 11
1.2926
 21
161.135
  0
LINE
  5
B3
100
AcDbEntity
  8
0
  6
ByLayer
 62
    0
370
   -1
100
AcDbLine
 10
1.2926
 20
161.135
 11
1.55994
 21
161.423
  0
LINE
  5
B4
100
AcDbEntity
  8
0
  6
ByLayer
 62
    0
370
   -1
100
AcDbLine
 10
1.55994
 20
161.423
 11
1.84795
 21
161.691
  0
LINE
  5
B5
100
AcDbEntity
  8
0
  6
ByLayer
 62
    0
370
   -1
100
AcDbLine
 10
1.84795
 20
161.691
 11
2.15663
 21
161.933
  0
LINE
  5
B6
100
AcDbEntity
  8
0
  6
ByLayer
 62
    0
370
   -1
100
AcDbLine
 10
2.15663
 20
161.933
 11
2.48185
 21
162.153
  0
LINE
  5
B7
100
AcDbEntity
  8
0
  6
ByLayer
 62
    0
370
   -1
100
AcDbLine
 10
2.48185
 20
162.153
 11
2.82498
 21
162.344
  0
LINE
  5
B8
100
AcDbEntity
  8
0
  6
ByLayer
 62
    0
370
   -1
100
AcDbLine
 10
2.82498
 20
162.344
 11
3.18189
 21
162.508
  0
LINE
  5
B9
100
AcDbEntity
  8
0
  6
ByLayer
 62
    0
370
   -1
100
AcDbLine
 10
3.18189
 20
162.508
 11
3.54983
 21
162.644
  0
LINE
  5
BA
100
AcDbEntity
  8
0
  6
ByLayer
 62
    0
370
   -1
100
AcDbLine
 10
3.54983
 20
162.644
 11
3.9274
 21
162.75
  0
LINE
  5
BB
100
AcDbEntity
  8
0
  6
ByLayer
 62
    0
370
   -1
100
AcDbLine
 10
3.9274
 20
162.75
 11
4.3119
 21
162.826
  0
LINE
  5
BC
100
AcDbEntity
  8
0
  6
ByLayer
 62
    0
370
   -1
100
AcDbLine
 10
4.3119
 20
162.826
 11
4.70186
 21
162.873
  0
LINE
  5
BD
100
AcDbEntity
  8
0
  6
ByLayer
 62
    0
370
   -1
100
AcDbLine
 10
4.70186
 20
162.873
 11
5.09598
 21
162.888
  0
LINE
  5
BE
100
AcDbEntity
  8
0
  6
ByLayer
 62
    0
370
   -1
100
AcDbLine
 10
5.09598
 20
162.888
 11
386.722
 21
162.888
  0
LINE
  5
BF
100
AcDbEntity
  8
0
  6
ByLayer
 62
    0
370
   -1
100
AcDbLine
 10
151.445
 20
20.7298
 11
163.439
 21
13.8052
  0
LINE
  5
C0
100
AcDbEntity
  8
0
  6
ByLayer
 62
    0
370
   -1
100
AcDbLine
 10
163.439
 20
13.8052
 11
170.364
 21
25.7983
  0
LINE
  5
C1
100
AcDbEntity
  8
0
  6
ByLayer
 62
    0
370
   -1
100
AcDbLine
 10
170.364
 20
25.7983
 11
158.37
 21
32.7243
  0
LINE
  5
C2
100
AcDbEntity
  8
0
  6
ByLayer
 62
    0
370
   -1
100
AcDbLine
 10
158.37
 20
32.7243
 11
151.445
 21
20.7298
  0
LINE
  5
C3
100
AcDbEntity
  8
0
  6
ByLayer
 62
    0
370
   -1
100
AcDbLine
 10
221.43
 20
25.8741
 11
228.356
 21
13.8796
  0
LINE
  5
C4
100
AcDbEntity
  8
0
  6
ByLayer
 62
    0
370
   -1
100
AcDbLine
 10
228.356
 20
13.8796
 11
240.351
 21
20.8043
  0
LINE
  5
C5
100
AcDbEntity
  8
0
  6
ByLayer
 62
    0
370
   -1
100
AcDbLine
 10
240.351
 20
20.8043
 11
233.426
 21
32.7987
  0
LINE
  5
C6
100
AcDbEntity
  8
0
  6
ByLayer
 62
    0
370
   -1
100
AcDbLine
 10
233.426
 20
32.7987
 11
221.43
 21
25.8741
  0
LINE
  5
C7
100
AcDbEntity
  8
0
  6
ByLayer
 62
    0
370
   -1
100
AcDbLine
 10
160.97
 20
37.22620000000001
 11
172.964
 21
30.3017
  0
LINE
  5
C8
100
AcDbEntity
  8
0
  6
ByLayer
 62
    0
370
   -1
100
AcDbLine
 10
172.964
 20
30.3017
 11
179.889
 21
42.29740000000001
  0
LINE
  5
C9
100
AcDbEntity
  8
0
  6
ByLayer
 62
    0
370
   -1
100
AcDbLine
 10
179.889
 20
42.29740000000001
 11
167.895
 21
49.22200000000001
  0
LINE
  5
CA
100
AcDbEntity
  8
0
  6
ByLayer
 62
    0
370
   -1
100
AcDbLine
 10
167.895
 20
49.22200000000001
 11
160.97
 21
37.22620000000001
  0
LINE
  5
CB
100
AcDbEntity
  8
0
  6
ByLayer
 62
    0
370
   -1
100
AcDbLine
 10
211.905
 20
42.37180000000001
 11
218.831
 21
30.3775
  0
LINE
  5
CC
100
AcDbEntity
  8
0
  6
ByLayer
 62
    0
370
   -1
100
AcDbLine
 10
218.831
 20
30.3775
 11
230.826
 21
37.30199999999999
  0
LINE
  5
CD
100
AcDbEntity
  8
0
  6
ByLayer
 62
    0
370
   -1
100
AcDbLine
 10
230.826
 20
37.30199999999999
 11
223.901
 21
49.29650000000001
  0
LINE
  5
CE
100
AcDbEntity
  8
0
  6
ByLayer
 62
    0
370
   -1
100
AcDbLine
 10
223.901
 20
49.29650000000001
 11
211.905
 21
42.37180000000001
  0
LINE
  5
CF
100
AcDbEntity
  8
0
  6
ByLayer
 62
    0
370
   -1
100
AcDbLine
 10
144.472
 20
46.75120000000001
 11
156.466
 21
39.82679999999999
  0
LINE
  5
D0
100
AcDbEntity
  8
0
  6
ByLayer
 62
    0
370
   -1
100
AcDbLine
 10
156.466
 20
39.82679999999999
 11
163.391
 21
51.82230000000001
  0
LINE
  5
D1
100
AcDbEntity
  8
0
  6
ByLayer
 62
    0
370
   -1
100
AcDbLine
 10
163.391
 20
51.82230000000001
 11
151.397
 21
58.74699999999999
  0
LINE
  5
D2
100
AcDbEntity
  8
0
  6
ByLayer
 62
    0
370
   -1
100
AcDbLine
 10
151.397
 20
58.74699999999999
 11
144.472
 21
46.75120000000001
  0
LINE
  5
D3
100
AcDbEntity
  8
0
  6
ByLayer
 62
    0
370
   -1
100
AcDbLine
 10
228.403
 20
51.89680000000001
 11
235.329
 21
39.9023
  0
LINE
  5
D4
100
AcDbEntity
  8
0
  6
ByLayer
 62
    0
370
   -1
100
AcDbLine
 10
235.329
 20
39.9023
 11
247.323
 21
46.827
  0
LINE
  5
D5
100
AcDbEntity
  8
0
  6
ByLayer
 62
    0
370
   -1
100
AcDbLine
 10
247.323
 20
46.827
 11
240.399
 21
58.82149999999999
  0
LINE
  5
D6
100
AcDbEntity
  8
0
  6
ByLayer
 62
    0
370
   -1
100
AcDbLine
 10
240.399
 20
58.82149999999999
 11
228.403
 21
51.89680000000001
  0
LINE
  5
D7
100
AcDbEntity
  8
0
  6
ByLayer
 62
    0
370
   -1
100
AcDbLine
 10
170.495
 20
53.7242
 11
182.489
 21
46.79949999999999
  0
LINE
  5
D8
100
AcDbEntity
  8
0
  6
ByLayer
 62
    0
370
   -1
100
AcDbLine
 10
182.489
 20
46.79949999999999
 11
189.414
 21
58.7954
  0
LINE
  5
D9
100
AcDbEntity
  8
0
  6
ByLayer
 62
    0
370
   -1
100
AcDbLine
 10
189.414
 20
58.7954
 11
177.42
 21
65.72
  0
LINE
  5
DA
100
AcDbEntity
  8
0
  6
ByLayer
 62
    0
370
   -1
100
AcDbLine
 10
177.42
 20
65.72
 11
170.495
 21
53.7242
  0
LINE
  5
DB
100
AcDbEntity
  8
0
  6
ByLayer
 62
    0
370
   -1
100
AcDbLine
 10
202.38
 20
58.8698
 11
209.306
 21
46.87530000000001
  0
LINE
  5
DC
100
AcDbEntity
  8
0
  6
ByLayer
 62
    0
370
   -1
100
AcDbLine
 10
209.306
 20
46.87530000000001
 11
221.301
 21
53.79999999999998
  0
LINE
  5
DD
100
AcDbEntity
  8
0
  6
ByLayer
 62
    0
370
   -1
100
AcDbLine
 10
221.301
 20
53.79999999999998
 11
214.376
 21
65.7945
  0
LINE
  5
DE
100
AcDbEntity
  8
0
  6
ByLayer
 62
    0
370
   -1
100
AcDbLine
 10
214.376
 20
65.7945
 11
202.38
 21
58.8698
  0
LINE
  5
DF
100
AcDbEntity
  8
0
  6
ByLayer
 62
    0
370
   -1
100
AcDbLine
 10
121.468
 20
54.53450000000001
 11
133.463
 21
47.60839999999999
  0
LINE
  5
E0
100
AcDbEntity
  8
0
  6
ByLayer
 62
    0
370
   -1
100
AcDbLine
 10
133.463
 20
47.60839999999999
 11
140.388
 21
59.60429999999999
  0
LINE
  5
E1
100
AcDbEntity
  8
0
  6
ByLayer
 62
    0
370
   -1
100
AcDbLine
 10
140.388
 20
59.60429999999999
 11
128.393
 21
66.52889999999999
  0
LINE
  5
E2
100
AcDbEntity
  8
0
  6
ByLayer
 62
    0
370
   -1
100
AcDbLine
 10
128.393
 20
66.52889999999999
 11
121.468
 21
54.53450000000001
  0
LINE
  5
E3
100
AcDbEntity
  8
0
  6
ByLayer
 62
    0
370
   -1
100
AcDbLine
 10
251.408
 20
59.67869999999999
 11
258.332
 21
47.68430000000001
  0
LINE
  5
E4
100
AcDbEntity
  8
0
  6
ByLayer
 62
    0
370
   -1
100
AcDbLine
 10
258.332
 20
47.68430000000001
 11
270.327
 21
54.60890000000001
  0
LINE
  5
E5
100
AcDbEntity
  8
0
  6
ByLayer
 62
    0
370
   -1
100
AcDbLine
 10
270.327
 20
54.60890000000001
 11
263.401
 21
66.60339999999999
  0
LINE
  5
E6
100
AcDbEntity
  8
0
  6
ByLayer
 62
    0
370
   -1
100
AcDbLine
 10
263.401
 20
66.60339999999999
 11
251.408
 21
59.67869999999999
  0
LINE
  5
E7
100
AcDbEntity
  8
0
  6
ByLayer
 62
    0
370
   -1
100
AcDbLine
 10
12.7703
 20
66.7741
 11
26.6209
 21
66.7741
  0
LINE
  5
E8
100
AcDbEntity
  8
0
  6
ByLayer
 62
    0
370
   -1
100
AcDbLine
 10
26.6209
 20
66.7741
 11
26.6209
 21
52.9248
  0
LINE
  5
E9
100
AcDbEntity
  8
0
  6
ByLayer
 62
    0
370
   -1
100
AcDbLine
 10
26.6209
 20
52.9248
 11
12.7703
 21
52.9248
  0
LINE
  5
EA
100
AcDbEntity
  8
0
  6
ByLayer
 62
    0
370
   -1
100
AcDbLine
 10
12.7703
 20
52.9248
 11
12.7703
 21
66.7741
  0
LINE
  5
EB
100
AcDbEntity
  8
0
  6
ByLayer
 62
    0
370
   -1
100
AcDbLine
 10
41.34520000000001
 20
66.86940000000001
 11
55.196
 21
66.86940000000001
  0
LINE
  5
EC
100
AcDbEntity
  8
0
  6
ByLayer
 62
    0
370
   -1
100
AcDbLine
 10
55.196
 20
66.86940000000001
 11
55.196
 21
53.02000000000001
  0
LINE
  5
ED
100
AcDbEntity
  8
0
  6
ByLayer
 62
    0
370
   -1
100
AcDbLine
 10
55.196
 20
53.02000000000001
 11
41.34520000000001
 21
53.02000000000001
  0
LINE
  5
EE
100
AcDbEntity
  8
0
  6
ByLayer
 62
    0
370
   -1
100
AcDbLine
 10
41.34520000000001
 20
53.02000000000001
 11
41.34520000000001
 21
66.86940000000001
  0
LINE
  5
EF
100
AcDbEntity
  8
0
  6
ByLayer
 62
    0
370
   -1
100
AcDbLine
 10
336.62
 20
66.86940000000001
 11
350.471
 21
66.86940000000001
  0
LINE
  5
F0
100
AcDbEntity
  8
0
  6
ByLayer
 62
    0
370
   -1
100
AcDbLine
 10
350.471
 20
66.86940000000001
 11
350.471
 21
53.02000000000001
  0
LINE
  5
F1
100
AcDbEntity
  8
0
  6
ByLayer
 62
    0
370
   -1
100
AcDbLine
 10
350.471
 20
53.02000000000001
 11
336.62
 21
53.02000000000001
  0
LINE
  5
F2
100
AcDbEntity
  8
0
  6
ByLayer
 62
    0
370
   -1
100
AcDbLine
 10
336.62
 20
53.02000000000001
 11
336.62
 21
66.86940000000001
  0
LINE
  5
F3
100
AcDbEntity
  8
0
  6
ByLayer
 62
    0
370
   -1
100
AcDbLine
 10
153.997
 20
63.2492
 11
165.991
 21
56.3245
  0
LINE
  5
F4
100
AcDbEntity
  8
0
  6
ByLayer
 62
    0
370
   -1
100
AcDbLine
 10
165.991
 20
56.3245
 11
172.916
 21
68.32040000000001
  0
LINE
  5
F5
100
AcDbEntity
  8
0
  6
ByLayer
 62
    0
370
   -1
100
AcDbLine
 10
172.916
 20
68.32040000000001
 11
160.922
 21
75.245
  0
LINE
  5
F6
100
AcDbEntity
  8
0
  6
ByLayer
 62
    0
370
   -1
100
AcDbLine
 10
160.922
 20
75.245
 11
153.997
 21
63.2492
  0
LINE
  5
F7
100
AcDbEntity
  8
0
  6
ByLayer
 62
    0
370
   -1
100
AcDbLine
 10
218.878
 20
68.3948
 11
225.804
 21
56.40029999999999
  0
LINE
  5
F8
100
AcDbEntity
  8
0
  6
ByLayer
 62
    0
370
   -1
100
AcDbLine
 10
225.804
 20
56.40029999999999
 11
237.798
 21
63.32500000000002
  0
LINE
  5
F9
100
AcDbEntity
  8
0
  6
ByLayer
 62
    0
370
   -1
100
AcDbLine
 10
237.798
 20
63.32500000000002
 11
230.874
 21
75.31950000000001
  0
LINE
  5
FA
100
AcDbEntity
  8
0
  6
ByLayer
 62
    0
370
   -1
100
AcDbLine
 10
230.874
 20
75.31950000000001
 11
218.878
 21
68.3948
  0
LINE
  5
FB
100
AcDbEntity
  8
0
  6
ByLayer
 62
    0
370
   -1
100
AcDbLine
 10
365.196
 20
71.53659999999999
 11
379.046
 21
71.53659999999999
  0
LINE
  5
FC
100
AcDbEntity
  8
0
  6
ByLayer
 62
    0
370
   -1
100
AcDbLine
 10
379.046
 20
71.53659999999999
 11
379.046
 21
57.68729999999999
  0
LINE
  5
FD
100
AcDbEntity
  8
0
  6
ByLayer
 62
    0
370
   -1
100
AcDbLine
 10
379.046
 20
57.68729999999999
 11
365.196
 21
57.68729999999999
  0
LINE
  5
FE
100
AcDbEntity
  8
0
  6
ByLayer
 62
    0
370
   -1
100
AcDbLine
 10
365.196
 20
57.68729999999999
 11
365.196
 21
71.53659999999999
  0
LINE
  5
FF
100
AcDbEntity
  8
0
  6
ByLayer
 62
    0
370
   -1
100
AcDbLine
 10
60.3952
 20
71.6319
 11
74.246
 21
71.6319
  0
LINE
  5
100
100
AcDbEntity
  8
0
  6
ByLayer
 62
    0
370
   -1
100
AcDbLine
 10
74.246
 20
71.6319
 11
74.246
 21
57.7825
  0
LINE
  5
101
100
AcDbEntity
  8
0
  6
ByLayer
 62
    0
370
   -1
100
AcDbLine
 10
74.246
 20
57.7825
 11
60.3952
 21
57.7825
  0
LINE
  5
102
100
AcDbEntity
  8
0
  6
ByLayer
 62
    0
370
   -1
100
AcDbLine
 10
60.3952
 20
57.7825
 11
60.3952
 21
71.6319
  0
LINE
  5
103
100
AcDbEntity
  8
0
  6
ByLayer
 62
    0
370
   -1
100
AcDbLine
 10
98.4952
 20
71.6319
 11
112.346
 21
71.6319
  0
LINE
  5
104
100
AcDbEntity
  8
0
  6
ByLayer
 62
    0
370
   -1
100
AcDbLine
 10
112.346
 20
71.6319
 11
112.346
 21
57.7825
  0
LINE
  5
105
100
AcDbEntity
  8
0
  6
ByLayer
 62
    0
370
   -1
100
AcDbLine
 10
112.346
 20
57.7825
 11
98.4952
 21
57.7825
  0
LINE
  5
106
100
AcDbEntity
  8
0
  6
ByLayer
 62
    0
370
   -1
100
AcDbLine
 10
98.4952
 20
57.7825
 11
98.4952
 21
71.6319
  0
LINE
  5
107
100
AcDbEntity
  8
0
  6
ByLayer
 62
    0
370
   -1
100
AcDbLine
 10
279.47
 20
71.6319
 11
293.321
 21
71.6319
  0
LINE
  5
108
100
AcDbEntity
  8
0
  6
ByLayer
 62
    0
370
   -1
100
AcDbLine
 10
293.321
 20
71.6319
 11
293.321
 21
57.7825
  0
LINE
  5
109
100
AcDbEntity
  8
0
  6
ByLayer
 62
    0
370
   -1
100
AcDbLine
 10
293.321
 20
57.7825
 11
279.47
 21
57.7825
  0
LINE
  5
10A
100
AcDbEntity
  8
0
  6
ByLayer
 62
    0
370
   -1
100
AcDbLine
 10
279.47
 20
57.7825
 11
279.47
 21
71.6319
  0
LINE
  5
10B
100
AcDbEntity
  8
0
  6
ByLayer
 62
    0
370
   -1
100
AcDbLine
 10
317.57
 20
71.6319
 11
331.421
 21
71.6319
  0
LINE
  5
10C
100
AcDbEntity
  8
0
  6
ByLayer
 62
    0
370
   -1
100
AcDbLine
 10
331.421
 20
71.6319
 11
331.421
 21
57.7825
  0
LINE
  5
10D
100
AcDbEntity
  8
0
  6
ByLayer
 62
    0
370
   -1
100
AcDbLine
 10
331.421
 20
57.7825
 11
317.57
 21
57.7825
  0
LINE
  5
10E
100
AcDbEntity
  8
0
  6
ByLayer
 62
    0
370
   -1
100
AcDbLine
 10
317.57
 20
57.7825
 11
317.57
 21
71.6319
  0
LINE
  5
10F
100
AcDbEntity
  8
0
  6
ByLayer
 62
    0
370
   -1
100
AcDbLine
 10
79.4452
 20
74.0145
 11
93.29600000000001
 21
74.0145
  0
LINE
  5
110
100
AcDbEntity
  8
0
  6
ByLayer
 62
    0
370
   -1
100
AcDbLine
 10
93.29600000000001
 20
74.0145
 11
93.29600000000001
 21
60.16380000000001
  0
LINE
  5
111
100
AcDbEntity
  8
0
  6
ByLayer
 62
    0
370
   -1
100
AcDbLine
 10
93.29600000000001
 20
60.16380000000001
 11
79.4452
 21
60.16380000000001
  0
LINE
  5
112
100
AcDbEntity
  8
0
  6
ByLayer
 62
    0
370
   -1
100
AcDbLine
 10
79.4452
 20
60.16380000000001
 11
79.4452
 21
74.0145
  0
LINE
  5
113
100
AcDbEntity
  8
0
  6
ByLayer
 62
    0
370
   -1
100
AcDbLine
 10
298.52
 20
74.0145
 11
312.371
 21
74.0145
  0
LINE
  5
114
100
AcDbEntity
  8
0
  6
ByLayer
 62
    0
370
   -1
100
AcDbLine
 10
312.371
 20
74.0145
 11
312.371
 21
60.16380000000001
  0
LINE
  5
115
100
AcDbEntity
  8
0
  6
ByLayer
 62
    0
370
   -1
100
AcDbLine
 10
312.371
 20
60.16380000000001
 11
298.52
 21
60.16380000000001
  0
LINE
  5
116
100
AcDbEntity
  8
0
  6
ByLayer
 62
    0
370
   -1
100
AcDbLine
 10
298.52
 20
60.16380000000001
 11
298.52
 21
74.0145
  0
LINE
  5
117
100
AcDbEntity
  8
0
  6
ByLayer
 62
    0
370
   -1
100
AcDbLine
 10
12.7703
 20
85.9194
 11
26.6209
 21
85.9194
  0
LINE
  5
118
100
AcDbEntity
  8
0
  6
ByLayer
 62
    0
370
   -1
100
AcDbLine
 10
26.6209
 20
85.9194
 11
26.6209
 21
72.06999999999999
  0
LINE
  5
119
100
AcDbEntity
  8
0
  6
ByLayer
 62
    0
370
   -1
100
AcDbLine
 10
26.6209
 20
72.06999999999999
 11
12.7703
 21
72.06999999999999
  0
LINE
  5
11A
100
AcDbEntity
  8
0
  6
ByLayer
 62
    0
370
   -1
100
AcDbLine
 10
12.7703
 20
72.06999999999999
 11
12.7703
 21
85.9194
  0
LINE
  5
11B
100
AcDbEntity
  8
0
  6
ByLayer
 62
    0
370
   -1
100
AcDbLine
 10
41.34520000000001
 20
85.9194
 11
55.196
 21
85.9194
  0
LINE
  5
11C
100
AcDbEntity
  8
0
  6
ByLayer
 62
    0
370
   -1
100
AcDbLine
 10
55.196
 20
85.9194
 11
55.196
 21
72.06999999999999
  0
LINE
  5
11D
100
AcDbEntity
  8
0
  6
ByLayer
 62
    0
370
   -1
100
AcDbLine
 10
55.196
 20
72.06999999999999
 11
41.34520000000001
 21
72.06999999999999
  0
LINE
  5
11E
100
AcDbEntity
  8
0
  6
ByLayer
 62
    0
370
   -1
100
AcDbLine
 10
41.34520000000001
 20
72.06999999999999
 11
41.34520000000001
 21
85.9194
  0
LINE
  5
11F
100
AcDbEntity
  8
0
  6
ByLayer
 62
    0
370
   -1
100
AcDbLine
 10
336.62
 20
85.9194
 11
350.471
 21
85.9194
  0
LINE
  5
120
100
AcDbEntity
  8
0
  6
ByLayer
 62
    0
370
   -1
100
AcDbLine
 10
350.471
 20
85.9194
 11
350.471
 21
72.06999999999999
  0
LINE
  5
121
100
AcDbEntity
  8
0
  6
ByLayer
 62
    0
370
   -1
100
AcDbLine
 10
350.471
 20
72.06999999999999
 11
336.62
 21
72.06999999999999
  0
LINE
  5
122
100
AcDbEntity
  8
0
  6
ByLayer
 62
    0
370
   -1
100
AcDbLine
 10
336.62
 20
72.06999999999999
 11
336.62
 21
85.9194
  0
LINE
  5
123
100
AcDbEntity
  8
0
  6
ByLayer
 62
    0
370
   -1
100
AcDbLine
 10
117.545
 20
88.3006
 11
131.396
 21
88.3006
  0
LINE
  5
124
100
AcDbEntity
  8
0
  6
ByLayer
 62
    0
370
   -1
100
AcDbLine
 10
131.396
 20
88.3006
 11
131.396
 21
74.4513
  0
LINE
  5
125
100
AcDbEntity
  8
0
  6
ByLayer
 62
    0
370
   -1
100
AcDbLine
 10
131.396
 20
74.4513
 11
117.545
 21
74.4513
  0
LINE
  5
126
100
AcDbEntity
  8
0
  6
ByLayer
 62
    0
370
   -1
100
AcDbLine
 10
117.545
 20
74.4513
 11
117.545
 21
88.3006
  0
LINE
  5
127
100
AcDbEntity
  8
0
  6
ByLayer
 62
    0
370
   -1
100
AcDbLine
 10
260.42
 20
88.3006
 11
274.271
 21
88.3006
  0
LINE
  5
128
100
AcDbEntity
  8
0
  6
ByLayer
 62
    0
370
   -1
100
AcDbLine
 10
274.271
 20
88.3006
 11
274.271
 21
74.4513
  0
LINE
  5
129
100
AcDbEntity
  8
0
  6
ByLayer
 62
    0
370
   -1
100
AcDbLine
 10
274.271
 20
74.4513
 11
260.42
 21
74.4513
  0
LINE
  5
12A
100
AcDbEntity
  8
0
  6
ByLayer
 62
    0
370
   -1
100
AcDbLine
 10
260.42
 20
74.4513
 11
260.42
 21
88.3006
  0
LINE
  5
12B
100
AcDbEntity
  8
0
  6
ByLayer
 62
    0
370
   -1
100
AcDbLine
 10
365.196
 20
90.5866
 11
379.046
 21
90.5866
  0
LINE
  5
12C
100
AcDbEntity
  8
0
  6
ByLayer
 62
    0
370
   -1
100
AcDbLine
 10
379.046
 20
90.5866
 11
379.046
 21
76.7373
  0
LINE
  5
12D
100
AcDbEntity
  8
0
  6
ByLayer
 62
    0
370
   -1
100
AcDbLine
 10
379.046
 20
76.7373
 11
365.196
 21
76.7373
  0
LINE
  5
12E
100
AcDbEntity
  8
0
  6
ByLayer
 62
    0
370
   -1
100
AcDbLine
 10
365.196
 20
76.7373
 11
365.196
 21
90.5866
  0
LINE
  5
12F
100
AcDbEntity
  8
0
  6
ByLayer
 62
    0
370
   -1
100
AcDbLine
 10
60.3952
 20
90.68190000000001
 11
74.246
 21
90.68190000000001
  0
LINE
  5
130
100
AcDbEntity
  8
0
  6
ByLayer
 62
    0
370
   -1
100
AcDbLine
 10
74.246
 20
90.68190000000001
 11
74.246
 21
76.83250000000001
  0
LINE
  5
131
100
AcDbEntity
  8
0
  6
ByLayer
 62
    0
370
   -1
100
AcDbLine
 10
74.246
 20
76.83250000000001
 11
60.3952
 21
76.83250000000001
  0
LINE
  5
132
100
AcDbEntity
  8
0
  6
ByLayer
 62
    0
370
   -1
100
AcDbLine
 10
60.3952
 20
76.83250000000001
 11
60.3952
 21
90.68190000000001
  0
LINE
  5
133
100
AcDbEntity
  8
0
  6
ByLayer
 62
    0
370
   -1
100
AcDbLine
 10
98.4952
 20
90.68190000000001
 11
112.346
 21
90.68190000000001
  0
LINE
  5
134
100
AcDbEntity
  8
0
  6
ByLayer
 62
    0
370
   -1
100
AcDbLine
 10
112.346
 20
90.68190000000001
 11
112.346
 21
76.83250000000001
  0
LINE
  5
135
100
AcDbEntity
  8
0
  6
ByLayer
 62
    0
370
   -1
100
AcDbLine
 10
112.346
 20
76.83250000000001
 11
98.4952
 21
76.83250000000001
  0
LINE
  5
136
100
AcDbEntity
  8
0
  6
ByLayer
 62
    0
370
   -1
100
AcDbLine
 10
98.4952
 20
76.83250000000001
 11
98.4952
 21
90.68190000000001
  0
LINE
  5
137
100
AcDbEntity
  8
0
  6
ByLayer
 62
    0
370
   -1
100
AcDbLine
 10
279.47
 20
90.68190000000001
 11
293.321
 21
90.68190000000001
  0
LINE
  5
138
100
AcDbEntity
  8
0
  6
ByLayer
 62
    0
370
   -1
100
AcDbLine
 10
293.321
 20
90.68190000000001
 11
293.321
 21
76.83250000000001
  0
LINE
  5
139
100
AcDbEntity
  8
0
  6
ByLayer
 62
    0
370
   -1
100
AcDbLine
 10
293.321
 20
76.83250000000001
 11
279.47
 21
76.83250000000001
  0
LINE
  5
13A
100
AcDbEntity
  8
0
  6
ByLayer
 62
    0
370
   -1
100
AcDbLine
 10
279.47
 20
76.83250000000001
 11
279.47
 21
90.68190000000001
  0
LINE
  5
13B
100
AcDbEntity
  8
0
  6
ByLayer
 62
    0
370
   -1
100
AcDbLine
 10
317.57
 20
90.68190000000001
 11
331.421
 21
90.68190000000001
  0
LINE
  5
13C
100
AcDbEntity
  8
0
  6
ByLayer
 62
    0
370
   -1
100
AcDbLine
 10
331.421
 20
90.68190000000001
 11
331.421
 21
76.83250000000001
  0
LINE
  5
13D
100
AcDbEntity
  8
0
  6
ByLayer
 62
    0
370
   -1
100
AcDbLine
 10
331.421
 20
76.83250000000001
 11
317.57
 21
76.83250000000001
  0
LINE
  5
13E
100
AcDbEntity
  8
0
  6
ByLayer
 62
    0
370
   -1
100
AcDbLine
 10
317.57
 20
76.83250000000001
 11
317.57
 21
90.68190000000001
  0
LINE
  5
13F
100
AcDbEntity
  8
0
  6
ByLayer
 62
    0
370
   -1
100
AcDbLine
 10
79.4452
 20
93.06309999999999
 11
93.29600000000001
 21
93.06309999999999
  0
LINE
  5
140
100
AcDbEntity
  8
0
  6
ByLayer
 62
    0
370
   -1
100
AcDbLine
 10
93.29600000000001
 20
93.06309999999999
 11
93.29600000000001
 21
79.2124
  0
LINE
  5
141
100
AcDbEntity
  8
0
  6
ByLayer
 62
    0
370
   -1
100
AcDbLine
 10
93.29600000000001
 20
79.2124
 11
79.4452
 21
79.2124
  0
LINE
  5
142
100
AcDbEntity
  8
0
  6
ByLayer
 62
    0
370
   -1
100
AcDbLine
 10
79.4452
 20
79.2124
 11
79.4452
 21
93.06309999999999
  0
LINE
  5
143
100
AcDbEntity
  8
0
  6
ByLayer
 62
    0
370
   -1
100
AcDbLine
 10
298.52
 20
93.06309999999999
 11
312.371
 21
93.06309999999999
  0
LINE
  5
144
100
AcDbEntity
  8
0
  6
ByLayer
 62
    0
370
   -1
100
AcDbLine
 10
312.371
 20
93.06309999999999
 11
312.371
 21
79.2124
  0
LINE
  5
145
100
AcDbEntity
  8
0
  6
ByLayer
 62
    0
370
   -1
100
AcDbLine
 10
312.371
 20
79.2124
 11
298.52
 21
79.2124
  0
LINE
  5
146
100
AcDbEntity
  8
0
  6
ByLayer
 62
    0
370
   -1
100
AcDbLine
 10
298.52
 20
79.2124
 11
298.52
 21
93.06309999999999
  0
LINE
  5
147
100
AcDbEntity
  8
0
  6
ByLayer
 62
    0
370
   -1
100
AcDbLine
 10
141.358
 20
97.82559999999998
 11
155.207
 21
97.82559999999998
  0
LINE
  5
148
100
AcDbEntity
  8
0
  6
ByLayer
 62
    0
370
   -1
100
AcDbLine
 10
155.207
 20
97.82559999999998
 11
155.207
 21
83.97630000000001
  0
LINE
  5
149
100
AcDbEntity
  8
0
  6
ByLayer
 62
    0
370
   -1
100
AcDbLine
 10
155.207
 20
83.97630000000001
 11
141.358
 21
83.97630000000001
  0
LINE
  5
14A
100
AcDbEntity
  8
0
  6
ByLayer
 62
    0
370
   -1
100
AcDbLine
 10
141.358
 20
83.97630000000001
 11
141.358
 21
97.82559999999998
  0
LINE
  5
14B
100
AcDbEntity
  8
0
  6
ByLayer
 62
    0
370
   -1
100
AcDbLine
 10
236.608
 20
97.82559999999998
 11
250.457
 21
97.82559999999998
  0
LINE
  5
14C
100
AcDbEntity
  8
0
  6
ByLayer
 62
    0
370
   -1
100
AcDbLine
 10
250.457
 20
97.82559999999998
 11
250.457
 21
83.97630000000001
  0
LINE
  5
14D
100
AcDbEntity
  8
0
  6
ByLayer
 62
    0
370
   -1
100
AcDbLine
 10
250.457
 20
83.97630000000001
 11
236.608
 21
83.97630000000001
  0
LINE
  5
14E
100
AcDbEntity
  8
0
  6
ByLayer
 62
    0
370
   -1
100
AcDbLine
 10
236.608
 20
83.97630000000001
 11
236.608
 21
97.82559999999998
  0
LINE
  5
14F
100
AcDbEntity
  8
0
  6
ByLayer
 62
    0
370
   -1
100
AcDbLine
 10
41.34520000000001
 20
104.969
 11
55.196
 21
104.969
  0
LINE
  5
150
100
AcDbEntity
  8
0
  6
ByLayer
 62
    0
370
   -1
100
AcDbLine
 10
55.196
 20
104.969
 11
55.196
 21
91.12
  0
LINE
  5
151
100
AcDbEntity
  8
0
  6
ByLayer
 62
    0
370
   -1
100
AcDbLine
 10
55.196
 20
91.12
 11
41.34520000000001
 21
91.12
  0
LINE
  5
152
100
AcDbEntity
  8
0
  6
ByLayer
 62
    0
370
   -1
100
AcDbLine
 10
41.34520000000001
 20
91.12
 11
41.34520000000001
 21
104.969
  0
LINE
  5
153
100
AcDbEntity
  8
0
  6
ByLayer
 62
    0
370
   -1
100
AcDbLine
 10
336.62
 20
104.969
 11
350.471
 21
104.969
  0
LINE
  5
154
100
AcDbEntity
  8
0
  6
ByLayer
 62
    0
370
   -1
100
AcDbLine
 10
350.471
 20
104.969
 11
350.471
 21
91.12
  0
LINE
  5
155
100
AcDbEntity
  8
0
  6
ByLayer
 62
    0
370
   -1
100
AcDbLine
 10
350.471
 20
91.12
 11
336.62
 21
91.12
  0
LINE
  5
156
100
AcDbEntity
  8
0
  6
ByLayer
 62
    0
370
   -1
100
AcDbLine
 10
336.62
 20
91.12
 11
336.62
 21
104.969
  0
LINE
  5
157
100
AcDbEntity
  8
0
  6
ByLayer
 62
    0
370
   -1
100
AcDbLine
 10
117.545
 20
107.351
 11
131.396
 21
107.351
  0
LINE
  5
158
100
AcDbEntity
  8
0
  6
ByLayer
 62
    0
370
   -1
100
AcDbLine
 10
131.396
 20
107.351
 11
131.396
 21
93.50129999999999
  0
LINE
  5
159
100
AcDbEntity
  8
0
  6
ByLayer
 62
    0
370
   -1
100
AcDbLine
 10
131.396
 20
93.50129999999999
 11
117.545
 21
93.50129999999999
  0
LINE
  5
15A
100
AcDbEntity
  8
0
  6
ByLayer
 62
    0
370
   -1
100
AcDbLine
 10
117.545
 20
93.50129999999999
 11
117.545
 21
107.351
  0
LINE
  5
15B
100
AcDbEntity
  8
0
  6
ByLayer
 62
    0
370
   -1
100
AcDbLine
 10
260.42
 20
107.351
 11
274.271
 21
107.351
  0
LINE
  5
15C
100
AcDbEntity
  8
0
  6
ByLayer
 62
    0
370
   -1
100
AcDbLine
 10
274.271
 20
107.351
 11
274.271
 21
93.50129999999999
  0
LINE
  5
15D
100
AcDbEntity
  8
0
  6
ByLayer
 62
    0
370
   -1
100
AcDbLine
 10
274.271
 20
93.50129999999999
 11
260.42
 21
93.50129999999999
  0
LINE
  5
15E
100
AcDbEntity
  8
0
  6
ByLayer
 62
    0
370
   -1
100
AcDbLine
 10
260.42
 20
93.50129999999999
 11
260.42
 21
107.351
  0
LINE
  5
15F
100
AcDbEntity
  8
0
  6
ByLayer
 62
    0
370
   -1
100
AcDbLine
 10
12.7703
 20
109.637
 11
26.6209
 21
109.637
  0
LINE
  5
160
100
AcDbEntity
  8
0
  6
ByLayer
 62
    0
370
   -1
100
AcDbLine
 10
26.6209
 20
109.637
 11
26.6209
 21
95.78729999999999
  0
LINE
  5
161
100
AcDbEntity
  8
0
  6
ByLayer
 62
    0
370
   -1
100
AcDbLine
 10
26.6209
 20
95.78729999999999
 11
12.7703
 21
95.78729999999999
  0
LINE
  5
162
100
AcDbEntity
  8
0
  6
ByLayer
 62
    0
370
   -1
100
AcDbLine
 10
12.7703
 20
95.78729999999999
 11
12.7703
 21
109.637
  0
LINE
  5
163
100
AcDbEntity
  8
0
  6
ByLayer
 62
    0
370
   -1
100
AcDbLine
 10
60.3952
 20
109.732
 11
74.246
 21
109.732
  0
LINE
  5
164
100
AcDbEntity
  8
0
  6
ByLayer
 62
    0
370
   -1
100
AcDbLine
 10
74.246
 20
109.732
 11
74.246
 21
95.88249999999999
  0
LINE
  5
165
100
AcDbEntity
  8
0
  6
ByLayer
 62
    0
370
   -1
100
AcDbLine
 10
74.246
 20
95.88249999999999
 11
60.3952
 21
95.88249999999999
  0
LINE
  5
166
100
AcDbEntity
  8
0
  6
ByLayer
 62
    0
370
   -1
100
AcDbLine
 10
60.3952
 20
95.88249999999999
 11
60.3952
 21
109.732
  0
LINE
  5
167
100
AcDbEntity
  8
0
  6
ByLayer
 62
    0
370
   -1
100
AcDbLine
 10
98.4952
 20
109.732
 11
112.346
 21
109.732
  0
LINE
  5
168
100
AcDbEntity
  8
0
  6
ByLayer
 62
    0
370
   -1
100
AcDbLine
 10
112.346
 20
109.732
 11
112.346
 21
95.88249999999999
  0
LINE
  5
169
100
AcDbEntity
  8
0
  6
ByLayer
 62
    0
370
   -1
100
AcDbLine
 10
112.346
 20
95.88249999999999
 11
98.4952
 21
95.88249999999999
  0
LINE
  5
16A
100
AcDbEntity
  8
0
  6
ByLayer
 62
    0
370
   -1
100
AcDbLine
 10
98.4952
 20
95.88249999999999
 11
98.4952
 21
109.732
  0
LINE
  5
16B
100
AcDbEntity
  8
0
  6
ByLayer
 62
    0
370
   -1
100
AcDbLine
 10
279.47
 20
109.732
 11
293.321
 21
109.732
  0
LINE
  5
16C
100
AcDbEntity
  8
0
  6
ByLayer
 62
    0
370
   -1
100
AcDbLine
 10
293.321
 20
109.732
 11
293.321
 21
95.88249999999999
  0
LINE
  5
16D
100
AcDbEntity
  8
0
  6
ByLayer
 62
    0
370
   -1
100
AcDbLine
 10
293.321
 20
95.88249999999999
 11
279.47
 21
95.88249999999999
  0
LINE
  5
16E
100
AcDbEntity
  8
0
  6
ByLayer
 62
    0
370
   -1
100
AcDbLine
 10
279.47
 20
95.88249999999999
 11
279.47
 21
109.732
  0
LINE
  5
16F
100
AcDbEntity
  8
0
  6
ByLayer
 62
    0
370
   -1
100
AcDbLine
 10
317.57
 20
109.732
 11
331.421
 21
109.732
  0
LINE
  5
170
100
AcDbEntity
  8
0
  6
ByLayer
 62
    0
370
   -1
100
AcDbLine
 10
331.421
 20
109.732
 11
331.421
 21
95.88249999999999
  0
LINE
  5
171
100
AcDbEntity
  8
0
  6
ByLayer
 62
    0
370
   -1
100
AcDbLine
 10
331.421
 20
95.88249999999999
 11
317.57
 21
95.88249999999999
  0
LINE
  5
172
100
AcDbEntity
  8
0
  6
ByLayer
 62
    0
370
   -1
100
AcDbLine
 10
317.57
 20
95.88249999999999
 11
317.57
 21
109.732
  0
LINE
  5
173
100
AcDbEntity
  8
0
  6
ByLayer
 62
    0
370
   -1
100
AcDbLine
 10
79.4452
 20
112.113
 11
93.29600000000001
 21
112.113
  0
LINE
  5
174
100
AcDbEntity
  8
0
  6
ByLayer
 62
    0
370
   -1
100
AcDbLine
 10
93.29600000000001
 20
112.113
 11
93.29600000000001
 21
98.26239999999999
  0
LINE
  5
175
100
AcDbEntity
  8
0
  6
ByLayer
 62
    0
370
   -1
100
AcDbLine
 10
93.29600000000001
 20
98.26239999999999
 11
79.4452
 21
98.26239999999999
  0
LINE
  5
176
100
AcDbEntity
  8
0
  6
ByLayer
 62
    0
370
   -1
100
AcDbLine
 10
79.4452
 20
98.26239999999999
 11
79.4452
 21
112.113
  0
LINE
  5
177
100
AcDbEntity
  8
0
  6
ByLayer
 62
    0
370
   -1
100
AcDbLine
 10
298.52
 20
112.113
 11
312.371
 21
112.113
  0
LINE
  5
178
100
AcDbEntity
  8
0
  6
ByLayer
 62
    0
370
   -1
100
AcDbLine
 10
312.371
 20
112.113
 11
312.371
 21
98.26239999999999
  0
LINE
  5
179
100
AcDbEntity
  8
0
  6
ByLayer
 62
    0
370
   -1
100
AcDbLine
 10
312.371
 20
98.26239999999999
 11
298.52
 21
98.26239999999999
  0
LINE
  5
17A
100
AcDbEntity
  8
0
  6
ByLayer
 62
    0
370
   -1
100
AcDbLine
 10
298.52
 20
98.26239999999999
 11
298.52
 21
112.113
  0
LINE
  5
17B
100
AcDbEntity
  8
0
  6
ByLayer
 62
    0
370
   -1
100
AcDbLine
 10
365.196
 20
114.399
 11
379.046
 21
114.399
  0
LINE
  5
17C
100
AcDbEntity
  8
0
  6
ByLayer
 62
    0
370
   -1
100
AcDbLine
 10
379.046
 20
114.399
 11
379.046
 21
100.549
  0
LINE
  5
17D
100
AcDbEntity
  8
0
  6
ByLayer
 62
    0
370
   -1
100
AcDbLine
 10
379.046
 20
100.549
 11
365.196
 21
100.549
  0
LINE
  5
17E
100
AcDbEntity
  8
0
  6
ByLayer
 62
    0
370
   -1
100
AcDbLine
 10
365.196
 20
100.549
 11
365.196
 21
114.399
  0
LINE
  5
17F
100
AcDbEntity
  8
0
  6
ByLayer
 62
    0
370
   -1
100
AcDbLine
 10
146.119
 20
121.638
 11
159.971
 21
121.638
  0
LINE
  5
180
100
AcDbEntity
  8
0
  6
ByLayer
 62
    0
370
   -1
100
AcDbLine
 10
159.971
 20
121.638
 11
159.971
 21
107.787
  0
LINE
  5
181
100
AcDbEntity
  8
0
  6
ByLayer
 62
    0
370
   -1
100
AcDbLine
 10
159.971
 20
107.787
 11
146.119
 21
107.787
  0
LINE
  5
182
100
AcDbEntity
  8
0
  6
ByLayer
 62
    0
370
   -1
100
AcDbLine
 10
146.119
 20
107.787
 11
146.119
 21
121.638
  0
LINE
  5
183
100
AcDbEntity
  8
0
  6
ByLayer
 62
    0
370
   -1
100
AcDbLine
 10
231.845
 20
121.638
 11
245.696
 21
121.638
  0
LINE
  5
184
100
AcDbEntity
  8
0
  6
ByLayer
 62
    0
370
   -1
100
AcDbLine
 10
245.696
 20
121.638
 11
245.696
 21
107.787
  0
LINE
  5
185
100
AcDbEntity
  8
0
  6
ByLayer
 62
    0
370
   -1
100
AcDbLine
 10
245.696
 20
107.787
 11
231.845
 21
107.787
  0
LINE
  5
186
100
AcDbEntity
  8
0
  6
ByLayer
 62
    0
370
   -1
100
AcDbLine
 10
231.845
 20
107.787
 11
231.845
 21
121.638
  0
LINE
  5
187
100
AcDbEntity
  8
0
  6
ByLayer
 62
    0
370
   -1
100
AcDbLine
 10
41.34520000000001
 20
124.019
 11
55.196
 21
124.019
  0
LINE
  5
188
100
AcDbEntity
  8
0
  6
ByLayer
 62
    0
370
   -1
100
AcDbLine
 10
55.196
 20
124.019
 11
55.196
 21
110.17
  0
LINE
  5
189
100
AcDbEntity
  8
0
  6
ByLayer
 62
    0
370
   -1
100
AcDbLine
 10
55.196
 20
110.17
 11
41.34520000000001
 21
110.17
  0
LINE
  5
18A
100
AcDbEntity
  8
0
  6
ByLayer
 62
    0
370
   -1
100
AcDbLine
 10
41.34520000000001
 20
110.17
 11
41.34520000000001
 21
124.019
  0
LINE
  5
18B
100
AcDbEntity
  8
0
  6
ByLayer
 62
    0
370
   -1
100
AcDbLine
 10
336.62
 20
124.019
 11
350.471
 21
124.019
  0
LINE
  5
18C
100
AcDbEntity
  8
0
  6
ByLayer
 62
    0
370
   -1
100
AcDbLine
 10
350.471
 20
124.019
 11
350.471
 21
110.17
  0
LINE
  5
18D
100
AcDbEntity
  8
0
  6
ByLayer
 62
    0
370
   -1
100
AcDbLine
 10
350.471
 20
110.17
 11
336.62
 21
110.17
  0
LINE
  5
18E
100
AcDbEntity
  8
0
  6
ByLayer
 62
    0
370
   -1
100
AcDbLine
 10
336.62
 20
110.17
 11
336.62
 21
124.019
  0
LINE
  5
18F
100
AcDbEntity
  8
0
  6
ByLayer
 62
    0
370
   -1
100
AcDbLine
 10
117.545
 20
126.401
 11
131.396
 21
126.401
  0
LINE
  5
190
100
AcDbEntity
  8
0
  6
ByLayer
 62
    0
370
   -1
100
AcDbLine
 10
131.396
 20
126.401
 11
131.396
 21
112.551
  0
LINE
  5
191
100
AcDbEntity
  8
0
  6
ByLayer
 62
    0
370
   -1
100
AcDbLine
 10
131.396
 20
112.551
 11
117.545
 21
112.551
  0
LINE
  5
192
100
AcDbEntity
  8
0
  6
ByLayer
 62
    0
370
   -1
100
AcDbLine
 10
117.545
 20
112.551
 11
117.545
 21
126.401
  0
LINE
  5
193
100
AcDbEntity
  8
0
  6
ByLayer
 62
    0
370
   -1
100
AcDbLine
 10
260.42
 20
126.401
 11
274.271
 21
126.401
  0
LINE
  5
194
100
AcDbEntity
  8
0
  6
ByLayer
 62
    0
370
   -1
100
AcDbLine
 10
274.271
 20
126.401
 11
274.271
 21
112.551
  0
LINE
  5
195
100
AcDbEntity
  8
0
  6
ByLayer
 62
    0
370
   -1
100
AcDbLine
 10
274.271
 20
112.551
 11
260.42
 21
112.551
  0
LINE
  5
196
100
AcDbEntity
  8
0
  6
ByLayer
 62
    0
370
   -1
100
AcDbLine
 10
260.42
 20
112.551
 11
260.42
 21
126.401
  0
LINE
  5
197
100
AcDbEntity
  8
0
  6
ByLayer
 62
    0
370
   -1
100
AcDbLine
 10
60.3952
 20
128.782
 11
74.246
 21
128.782
  0
LINE
  5
198
100
AcDbEntity
  8
0
  6
ByLayer
 62
    0
370
   -1
100
AcDbLine
 10
74.246
 20
128.782
 11
74.246
 21
114.933
  0
LINE
  5
199
100
AcDbEntity
  8
0
  6
ByLayer
 62
    0
370
   -1
100
AcDbLine
 10
74.246
 20
114.933
 11
60.3952
 21
114.933
  0
LINE
  5
19A
100
AcDbEntity
  8
0
  6
ByLayer
 62
    0
370
   -1
100
AcDbLine
 10
60.3952
 20
114.933
 11
60.3952
 21
128.782
  0
LINE
  5
19B
100
AcDbEntity
  8
0
  6
ByLayer
 62
    0
370
   -1
100
AcDbLine
 10
98.4952
 20
128.782
 11
112.346
 21
128.782
  0
LINE
  5
19C
100
AcDbEntity
  8
0
  6
ByLayer
 62
    0
370
   -1
100
AcDbLine
 10
112.346
 20
128.782
 11
112.346
 21
114.933
  0
LINE
  5
19D
100
AcDbEntity
  8
0
  6
ByLayer
 62
    0
370
   -1
100
AcDbLine
 10
112.346
 20
114.933
 11
98.4952
 21
114.933
  0
LINE
  5
19E
100
AcDbEntity
  8
0
  6
ByLayer
 62
    0
370
   -1
100
AcDbLine
 10
98.4952
 20
114.933
 11
98.4952
 21
128.782
  0
LINE
  5
19F
100
AcDbEntity
  8
0
  6
ByLayer
 62
    0
370
   -1
100
AcDbLine
 10
279.47
 20
128.782
 11
293.321
 21
128.782
  0
LINE
  5
1A0
100
AcDbEntity
  8
0
  6
ByLayer
 62
    0
370
   -1
100
AcDbLine
 10
293.321
 20
128.782
 11
293.321
 21
114.933
  0
LINE
  5
1A1
100
AcDbEntity
  8
0
  6
ByLayer
 62
    0
370
   -1
100
AcDbLine
 10
293.321
 20
114.933
 11
279.47
 21
114.933
  0
LINE
  5
1A2
100
AcDbEntity
  8
0
  6
ByLayer
 62
    0
370
   -1
100
AcDbLine
 10
279.47
 20
114.933
 11
279.47
 21
128.782
  0
LINE
  5
1A3
100
AcDbEntity
  8
0
  6
ByLayer
 62
    0
370
   -1
100
AcDbLine
 10
317.57
 20
128.782
 11
331.421
 21
128.782
  0
LINE
  5
1A4
100
AcDbEntity
  8
0
  6
ByLayer
 62
    0
370
   -1
100
AcDbLine
 10
331.421
 20
128.782
 11
331.421
 21
114.933
  0
LINE
  5
1A5
100
AcDbEntity
  8
0
  6
ByLayer
 62
    0
370
   -1
100
AcDbLine
 10
331.421
 20
114.933
 11
317.57
 21
114.933
  0
LINE
  5
1A6
100
AcDbEntity
  8
0
  6
ByLayer
 62
    0
370
   -1
100
AcDbLine
 10
317.57
 20
114.933
 11
317.57
 21
128.782
  0
LINE
  5
1A7
100
AcDbEntity
  8
0
  6
ByLayer
 62
    0
370
   -1
100
AcDbLine
 10
79.4452
 20
131.163
 11
93.29600000000001
 21
131.163
  0
LINE
  5
1A8
100
AcDbEntity
  8
0
  6
ByLayer
 62
    0
370
   -1
100
AcDbLine
 10
93.29600000000001
 20
131.163
 11
93.29600000000001
 21
117.312
  0
LINE
  5
1A9
100
AcDbEntity
  8
0
  6
ByLayer
 62
    0
370
   -1
100
AcDbLine
 10
93.29600000000001
 20
117.312
 11
79.4452
 21
117.312
  0
LINE
  5
1AA
100
AcDbEntity
  8
0
  6
ByLayer
 62
    0
370
   -1
100
AcDbLine
 10
79.4452
 20
117.312
 11
79.4452
 21
131.163
  0
LINE
  5
1AB
100
AcDbEntity
  8
0
  6
ByLayer
 62
    0
370
   -1
100
AcDbLine
 10
298.52
 20
131.163
 11
312.371
 21
131.163
  0
LINE
  5
1AC
100
AcDbEntity
  8
0
  6
ByLayer
 62
    0
370
   -1
100
AcDbLine
 10
312.371
 20
131.163
 11
312.371
 21
117.312
  0
LINE
  5
1AD
100
AcDbEntity
  8
0
  6
ByLayer
 62
    0
370
   -1
100
AcDbLine
 10
312.371
 20
117.312
 11
298.52
 21
117.312
  0
LINE
  5
1AE
100
AcDbEntity
  8
0
  6
ByLayer
 62
    0
370
   -1
100
AcDbLine
 10
298.52
 20
117.312
 11
298.52
 21
131.163
  0
LINE
  5
1AF
100
AcDbEntity
  8
0
  6
ByLayer
 62
    0
370
   -1
100
AcDbLine
 10
12.7703
 20
143.069
 11
26.6209
 21
143.069
  0
LINE
  5
1B0
100
AcDbEntity
  8
0
  6
ByLayer
 62
    0
370
   -1
100
AcDbLine
 10
26.6209
 20
143.069
 11
26.6209
 21
129.22
  0
LINE
  5
1B1
100
AcDbEntity
  8
0
  6
ByLayer
 62
    0
370
   -1
100
AcDbLine
 10
26.6209
 20
129.22
 11
12.7703
 21
129.22
  0
LINE
  5
1B2
100
AcDbEntity
  8
0
  6
ByLayer
 62
    0
370
   -1
100
AcDbLine
 10
12.7703
 20
129.22
 11
12.7703
 21
143.069
  0
LINE
  5
1B3
100
AcDbEntity
  8
0
  6
ByLayer
 62
    0
370
   -1
100
AcDbLine
 10
41.34520000000001
 20
143.069
 11
55.196
 21
143.069
  0
LINE
  5
1B4
100
AcDbEntity
  8
0
  6
ByLayer
 62
    0
370
   -1
100
AcDbLine
 10
55.196
 20
143.069
 11
55.196
 21
129.22
  0
LINE
  5
1B5
100
AcDbEntity
  8
0
  6
ByLayer
 62
    0
370
   -1
100
AcDbLine
 10
55.196
 20
129.22
 11
41.34520000000001
 21
129.22
  0
LINE
  5
1B6
100
AcDbEntity
  8
0
  6
ByLayer
 62
    0
370
   -1
100
AcDbLine
 10
41.34520000000001
 20
129.22
 11
41.34520000000001
 21
143.069
  0
LINE
  5
1B7
100
AcDbEntity
  8
0
  6
ByLayer
 62
    0
370
   -1
100
AcDbLine
 10
336.62
 20
143.069
 11
350.471
 21
143.069
  0
LINE
  5
1B8
100
AcDbEntity
  8
0
  6
ByLayer
 62
    0
370
   -1
100
AcDbLine
 10
350.471
 20
143.069
 11
350.471
 21
129.22
  0
LINE
  5
1B9
100
AcDbEntity
  8
0
  6
ByLayer
 62
    0
370
   -1
100
AcDbLine
 10
350.471
 20
129.22
 11
336.62
 21
129.22
  0
LINE
  5
1BA
100
AcDbEntity
  8
0
  6
ByLayer
 62
    0
370
   -1
100
AcDbLine
 10
336.62
 20
129.22
 11
336.62
 21
143.069
  0
LINE
  5
1BB
100
AcDbEntity
  8
0
  6
ByLayer
 62
    0
370
   -1
100
AcDbLine
 10
365.196
 20
143.069
 11
379.046
 21
143.069
  0
LINE
  5
1BC
100
AcDbEntity
  8
0
  6
ByLayer
 62
    0
370
   -1
100
AcDbLine
 10
379.046
 20
143.069
 11
379.046
 21
129.22
  0
LINE
  5
1BD
100
AcDbEntity
  8
0
  6
ByLayer
 62
    0
370
   -1
100
AcDbLine
 10
379.046
 20
129.22
 11
365.196
 21
129.22
  0
LINE
  5
1BE
100
AcDbEntity
  8
0
  6
ByLayer
 62
    0
370
   -1
100
AcDbLine
 10
365.196
 20
129.22
 11
365.196
 21
143.069
  0
LINE
  5
1BF
100
AcDbEntity
  8
0
  6
ByLayer
 62
    0
370
   -1
100
AcDbLine
 10
117.545
 20
145.451
 11
131.396
 21
145.451
  0
LINE
  5
1C0
100
AcDbEntity
  8
0
  6
ByLayer
 62
    0
370
   -1
100
AcDbLine
 10
131.396
 20
145.451
 11
131.396
 21
131.601
  0
LINE
  5
1C1
100
AcDbEntity
  8
0
  6
ByLayer
 62
    0
370
   -1
100
AcDbLine
 10
131.396
 20
131.601
 11
117.545
 21
131.601
  0
LINE
  5
1C2
100
AcDbEntity
  8
0
  6
ByLayer
 62
    0
370
   -1
100
AcDbLine
 10
117.545
 20
131.601
 11
117.545
 21
145.451
  0
LINE
  5
1C3
100
AcDbEntity
  8
0
  6
ByLayer
 62
    0
370
   -1
100
AcDbLine
 10
141.358
 20
145.451
 11
155.207
 21
145.451
  0
LINE
  5
1C4
100
AcDbEntity
  8
0
  6
ByLayer
 62
    0
370
   -1
100
AcDbLine
 10
155.207
 20
145.451
 11
155.207
 21
131.601
  0
LINE
  5
1C5
100
AcDbEntity
  8
0
  6
ByLayer
 62
    0
370
   -1
100
AcDbLine
 10
155.207
 20
131.601
 11
141.358
 21
131.601
  0
LINE
  5
1C6
100
AcDbEntity
  8
0
  6
ByLayer
 62
    0
370
   -1
100
AcDbLine
 10
141.358
 20
131.601
 11
141.358
 21
145.451
  0
LINE
  5
1C7
100
AcDbEntity
  8
0
  6
ByLayer
 62
    0
370
   -1
100
AcDbLine
 10
236.608
 20
145.451
 11
250.457
 21
145.451
  0
LINE
  5
1C8
100
AcDbEntity
  8
0
  6
ByLayer
 62
    0
370
   -1
100
AcDbLine
 10
250.457
 20
145.451
 11
250.457
 21
131.601
  0
LINE
  5
1C9
100
AcDbEntity
  8
0
  6
ByLayer
 62
    0
370
   -1
100
AcDbLine
 10
250.457
 20
131.601
 11
236.608
 21
131.601
  0
LINE
  5
1CA
100
AcDbEntity
  8
0
  6
ByLayer
 62
    0
370
   -1
100
AcDbLine
 10
236.608
 20
131.601
 11
236.608
 21
145.451
  0
LINE
  5
1CB
100
AcDbEntity
  8
0
  6
ByLayer
 62
    0
370
   -1
100
AcDbLine
 10
260.42
 20
145.451
 11
274.271
 21
145.451
  0
LINE
  5
1CC
100
AcDbEntity
  8
0
  6
ByLayer
 62
    0
370
   -1
100
AcDbLine
 10
274.271
 20
145.451
 11
274.271
 21
131.601
  0
LINE
  5
1CD
100
AcDbEntity
  8
0
  6
ByLayer
 62
    0
370
   -1
100
AcDbLine
 10
274.271
 20
131.601
 11
260.42
 21
131.601
  0
LINE
  5
1CE
100
AcDbEntity
  8
0
  6
ByLayer
 62
    0
370
   -1
100
AcDbLine
 10
260.42
 20
131.601
 11
260.42
 21
145.451
  0
LINE
  5
1CF
100
AcDbEntity
  8
0
  6
ByLayer
 62
    0
370
   -1
100
AcDbLine
 10
60.3952
 20
147.832
 11
74.246
 21
147.832
  0
LINE
  5
1D0
100
AcDbEntity
  8
0
  6
ByLayer
 62
    0
370
   -1
100
AcDbLine
 10
74.246
 20
147.832
 11
74.246
 21
133.983
  0
LINE
  5
1D1
100
AcDbEntity
  8
0
  6
ByLayer
 62
    0
370
   -1
100
AcDbLine
 10
74.246
 20
133.983
 11
60.3952
 21
133.983
  0
LINE
  5
1D2
100
AcDbEntity
  8
0
  6
ByLayer
 62
    0
370
   -1
100
AcDbLine
 10
60.3952
 20
133.983
 11
60.3952
 21
147.832
  0
LINE
  5
1D3
100
AcDbEntity
  8
0
  6
ByLayer
 62
    0
370
   -1
100
AcDbLine
 10
98.4952
 20
147.832
 11
112.346
 21
147.832
  0
LINE
  5
1D4
100
AcDbEntity
  8
0
  6
ByLayer
 62
    0
370
   -1
100
AcDbLine
 10
112.346
 20
147.832
 11
112.346
 21
133.983
  0
LINE
  5
1D5
100
AcDbEntity
  8
0
  6
ByLayer
 62
    0
370
   -1
100
AcDbLine
 10
112.346
 20
133.983
 11
98.4952
 21
133.983
  0
LINE
  5
1D6
100
AcDbEntity
  8
0
  6
ByLayer
 62
    0
370
   -1
100
AcDbLine
 10
98.4952
 20
133.983
 11
98.4952
 21
147.832
  0
LINE
  5
1D7
100
AcDbEntity
  8
0
  6
ByLayer
 62
    0
370
   -1
100
AcDbLine
 10
279.47
 20
147.832
 11
293.321
 21
147.832
  0
LINE
  5
1D8
100
AcDbEntity
  8
0
  6
ByLayer
 62
    0
370
   -1
100
AcDbLine
 10
293.321
 20
147.832
 11
293.321
 21
133.983
  0
LINE
  5
1D9
100
AcDbEntity
  8
0
  6
ByLayer
 62
    0
370
   -1
100
AcDbLine
 10
293.321
 20
133.983
 11
279.47
 21
133.983
  0
LINE
  5
1DA
100
AcDbEntity
  8
0
  6
ByLayer
 62
    0
370
   -1
100
AcDbLine
 10
279.47
 20
133.983
 11
279.47
 21
147.832
  0
LINE
  5
1DB
100
AcDbEntity
  8
0
  6
ByLayer
 62
    0
370
   -1
100
AcDbLine
 10
317.57
 20
147.832
 11
331.421
 21
147.832
  0
LINE
  5
1DC
100
AcDbEntity
  8
0
  6
ByLayer
 62
    0
370
   -1
100
AcDbLine
 10
331.421
 20
147.832
 11
331.421
 21
133.983
  0
LINE
  5
1DD
100
AcDbEntity
  8
0
  6
ByLayer
 62
    0
370
   -1
100
AcDbLine
 10
331.421
 20
133.983
 11
317.57
 21
133.983
  0
LINE
  5
1DE
100
AcDbEntity
  8
0
  6
ByLayer
 62
    0
370
   -1
100
AcDbLine
 10
317.57
 20
133.983
 11
317.57
 21
147.832
  0
LINE
  5
1DF
100
AcDbEntity
  8
0
  6
ByLayer
 62
    0
370
   -1
100
AcDbLine
 10
79.4452
 20
150.213
 11
93.29600000000001
 21
150.213
  0
LINE
  5
1E0
100
AcDbEntity
  8
0
  6
ByLayer
 62
    0
370
   -1
100
AcDbLine
 10
93.29600000000001
 20
150.213
 11
93.29600000000001
 21
136.362
  0
LINE
  5
1E1
100
AcDbEntity
  8
0
  6
ByLayer
 62
    0
370
   -1
100
AcDbLine
 10
93.29600000000001
 20
136.362
 11
79.4452
 21
136.362
  0
LINE
  5
1E2
100
AcDbEntity
  8
0
  6
ByLayer
 62
    0
370
   -1
100
AcDbLine
 10
79.4452
 20
136.362
 11
79.4452
 21
150.213
  0
LINE
  5
1E3
100
AcDbEntity
  8
0
  6
ByLayer
 62
    0
370
   -1
100
AcDbLine
 10
298.52
 20
150.213
 11
312.371
 21
150.213
  0
LINE
  5
1E4
100
AcDbEntity
  8
0
  6
ByLayer
 62
    0
370
   -1
100
AcDbLine
 10
312.371
 20
150.213
 11
312.371
 21
136.362
  0
LINE
  5
1E5
100
AcDbEntity
  8
0
  6
ByLayer
 62
    0
370
   -1
100
AcDbLine
 10
312.371
 20
136.362
 11
298.52
 21
136.362
  0
LINE
  5
1E6
100
AcDbEntity
  8
0
  6
ByLayer
 62
    0
370
   -1
100
AcDbLine
 10
298.52
 20
136.362
 11
298.52
 21
150.213
  0
ENDBLK
  5
5C
330
5A
100
AcDbEntity
  8
0
100
AcDbBlockEnd
  0
BLOCK
  5
5E
330
5D
100
AcDbEntity
  8
0
100
AcDbBlockBegin
  2
RP PICO
 70
    0
 10
0
 20
0
  3
RP PICO
  1

  0
LWPOLYLINE
  5
1E7
100
AcDbEntity
  8
sketch
  6
ByLayer
 62
  256
370
   -1
100
AcDbPolyline
 90
    4
 70
    1
 43
0
 10
0
 20
-51
 10
21
 20
-51
 10
21
 20
0
 10
0
 20
0
  0
ENDBLK
  5
5F
330
5D
100
AcDbEntity
  8
0
100
AcDbBlockEnd
  0
ENDSEC
  0
SECTION
  2
ENTITIES
  0
INSERT
  5
1E8
100
AcDbEntity
  8
0
  6
ByLayer
 62
  256
370
   -1
100
AcDbBlockReference
  2
b49552adcf9fb06611f1e3e2cfa053504bc49d40_switch
 10
-19.6956
 20
-136.1445
 30
0
 41
1
 42
1
 43
0
 50
0
 70
    1
 71
    1
 44
0
 45
0
  0
INSERT
  5
1E9
100
AcDbEntity
  8
sketch
  6
ByLayer
 62
  256
370
   -1
100
AcDbBlockReference
  2
RP PICO
 10
-10.5
 20
15.77349999999998
 30
0
 41
1
 42
1
 43
0
 50
0
 70
    1
 71
    1
 44
0
 45
0
  0
INSERT
  5
1EA
100
AcDbEntity
  8
sketch
  6
ByLayer
 62
  256
370
   -1
100
AcDbBlockReference
  2
RP PICO
 10
373.9535017697674
 20
15.77350000000001
 30
0
 41
-1
 42
1
 43
0
 50
0
 70
    1
 71
    1
 44
0
 45
0
  0
LWPOLYLINE
  5
1EB
100
AcDbEntity
  8
Left
  6
ByLayer
 62
  256
370
   -1
100
AcDbPolyline
 90
    5
 70
    0
 43
0
 10
136.7704
 20
-96.3177
 10
143.6954
 20
-84.32219999999998
 10
131.7014
 20
-77.39750000000001
 10
124.7764
 20
-89.39329999999998
 10
136.7704
 20
-96.3177
  0
LWPOLYLINE
  5
1EC
100
AcDbEntity
  8
Left
  6
ByLayer
 62
  256
370
   -1
100
AcDbPolyline
 90
    5
 70
    0
 43
0
 10
162.7934
 20
-89.345
 10
169.7184
 20
-77.34909999999999
 10
157.7244
 20
-70.42449999999999
 10
150.7994
 20
-82.4203
 10
162.7934
 20
-89.345
  0
LWPOLYLINE
  5
1ED
100
AcDbEntity
  8
Left
  6
ByLayer
 62
  256
370
   -1
100
AcDbPolyline
 90
    5
 70
    0
 43
0
 10
6.9253
 20
-69.37039999999999
 10
6.9253
 20
-83.21969999999999
 10
-6.925299999999998
 20
-83.21969999999999
 10
-6.925299999999998
 20
-69.37039999999999
 10
6.9253
 20
-69.37039999999999
  0
LWPOLYLINE
  5
1EE
100
AcDbEntity
  8
Left
  6
ByLayer
 62
  256
370
   -1
100
AcDbPolyline
 90
    5
 70
    0
 43
0
 10
146.2954
 20
-79.81999999999999
 10
153.2204
 20
-67.82409999999999
 10
141.2264
 20
-60.89949999999999
 10
134.3014
 20
-72.89529999999999
 10
146.2954
 20
-79.81999999999999
  0
LWPOLYLINE
  5
1EF
100
AcDbEntity
  8
Left
  6
ByLayer
 62
  256
370
   -1
100
AcDbPolyline
 90
    5
 70
    0
 43
0
 10
6.9253
 20
-50.2251
 10
6.9253
 20
-64.0745
 10
-6.925299999999998
 20
-64.0745
 10
-6.925299999999998
 20
-50.2251
 10
6.9253
 20
-50.2251
  0
LWPOLYLINE
  5
1F0
100
AcDbEntity
  8
Left
  6
ByLayer
 62
  256
370
   -1
100
AcDbPolyline
 90
    5
 70
    0
 43
0
 10
135.5114
 20
-38.31890000000001
 10
135.5114
 20
-52.16819999999998
 10
121.6624
 20
-52.16819999999998
 10
121.6624
 20
-38.31890000000001
 10
135.5114
 20
-38.31890000000001
  0
LWPOLYLINE
  5
1F1
100
AcDbEntity
  8
Left
  6
ByLayer
 62
  256
370
   -1
100
AcDbPolyline
 90
    5
 70
    0
 43
0
 10
140.2754
 20
-14.50649999999999
 10
140.2754
 20
-28.35749999999999
 10
126.4234
 20
-28.35749999999999
 10
126.4234
 20
-14.50649999999999
 10
140.2754
 20
-14.50649999999999
  0
LWPOLYLINE
  5
1F2
100
AcDbEntity
  8
Left
  6
ByLayer
 62
  256
370
   -1
100
AcDbPolyline
 90
    5
 70
    0
 43
0
 10
135.5114
 20
9.3065
 10
135.5114
 20
-4.543499999999995
 10
121.6624
 20
-4.543499999999995
 10
121.6624
 20
9.3065
 10
135.5114
 20
9.3065
  0
LWPOLYLINE
  5
1F3
100
AcDbEntity
  8
Left
  6
ByLayer
 62
  256
370
   -1
100
AcDbPolyline
 90
    4
 70
    1
 43
0
 10
143.7434
 20
-122.3393
 10
150.6684
 20
-110.3462
 10
138.6744
 20
-103.4202
 10
131.7494
 20
-115.4147
  0
LWPOLYLINE
  5
1F4
100
AcDbEntity
  8
Left
  6
ByLayer
 62
  256
370
   -1
100
AcDbPolyline
 90
    4
 70
    1
 43
0
 10
153.2684
 20
-105.8428
 10
160.1934
 20
-93.84709999999998
 10
148.1994
 20
-86.92249999999999
 10
141.2744
 20
-98.91829999999999
  0
LWPOLYLINE
  5
1F5
100
AcDbEntity
  8
Left
  6
ByLayer
 62
  256
370
   -1
100
AcDbPolyline
 90
    4
 70
    1
 43
0
 10
6.9253
 20
-26.50749999999999
 10
6.9253
 20
-40.35720000000001
 10
-6.925299999999998
 20
-40.35720000000001
 10
-6.925299999999998
 20
-26.50749999999999
  0
LWPOLYLINE
  5
1F6
100
AcDbEntity
  8
Left
  6
ByLayer
 62
  256
370
   -1
100
AcDbPolyline
 90
    4
 70
    1
 43
0
 10
6.9253
 20
6.924499999999995
 10
6.9253
 20
-6.924499999999995
 10
-6.925299999999998
 20
-6.924499999999995
 10
-6.925299999999998
 20
6.924499999999995
  0
LWPOLYLINE
  5
1F7
100
AcDbEntity
  8
Left
  6
ByLayer
 62
  256
370
   -1
100
AcDbPolyline
 90
    4
 70
    1
 43
0
 10
113.7674
 20
-88.5361
 10
120.6924
 20
-76.5402
 10
108.6974
 20
-69.6156
 10
101.7724
 20
-81.60999999999999
  0
LWPOLYLINE
  5
1F8
100
AcDbEntity
  8
Left
  6
ByLayer
 62
  256
370
   -1
100
AcDbPolyline
 90
    4
 70
    1
 43
0
 10
35.5004
 20
-69.27509999999998
 10
35.5004
 20
-83.12449999999998
 10
21.64960000000001
 20
-83.12449999999998
 10
21.64960000000001
 20
-69.27509999999998
  0
LWPOLYLINE
  5
1F9
100
AcDbEntity
  8
Left
  6
ByLayer
 62
  256
370
   -1
100
AcDbPolyline
 90
    4
 70
    1
 43
0
 10
54.5504
 20
-64.51259999999999
 10
54.5504
 20
-78.36199999999999
 10
40.6996
 20
-78.36199999999999
 10
40.6996
 20
-64.51259999999999
  0
LWPOLYLINE
  5
1FA
100
AcDbEntity
  8
Left
  6
ByLayer
 62
  256
370
   -1
100
AcDbPolyline
 90
    4
 70
    1
 43
0
 10
92.6504
 20
-64.51259999999999
 10
92.6504
 20
-78.36199999999999
 10
78.7996
 20
-78.36199999999999
 10
78.7996
 20
-64.51259999999999
  0
LWPOLYLINE
  5
1FB
100
AcDbEntity
  8
Left
  6
ByLayer
 62
  256
370
   -1
100
AcDbPolyline
 90
    4
 70
    1
 43
0
 10
73.60040000000001
 20
-62.13
 10
73.60040000000001
 20
-75.98069999999998
 10
59.7496
 20
-75.98069999999998
 10
59.7496
 20
-62.13
  0
LWPOLYLINE
  5
1FC
100
AcDbEntity
  8
Left
  6
ByLayer
 62
  256
370
   -1
100
AcDbPolyline
 90
    4
 70
    1
 43
0
 10
35.5004
 20
-50.2251
 10
35.5004
 20
-64.0745
 10
21.64960000000001
 20
-64.0745
 10
21.64960000000001
 20
-50.2251
  0
LWPOLYLINE
  5
1FD
100
AcDbEntity
  8
Left
  6
ByLayer
 62
  256
370
   -1
100
AcDbPolyline
 90
    4
 70
    1
 43
0
 10
111.7004
 20
-47.84389999999999
 10
111.7004
 20
-61.69319999999999
 10
97.8494
 20
-61.69319999999999
 10
97.8494
 20
-47.84389999999999
  0
LWPOLYLINE
  5
1FE
100
AcDbEntity
  8
Left
  6
ByLayer
 62
  256
370
   -1
100
AcDbPolyline
 90
    4
 70
    1
 43
0
 10
54.5504
 20
-45.46259999999998
 10
54.5504
 20
-59.31199999999998
 10
40.6996
 20
-59.31199999999998
 10
40.6996
 20
-45.46259999999998
  0
LWPOLYLINE
  5
1FF
100
AcDbEntity
  8
Left
  6
ByLayer
 62
  256
370
   -1
100
AcDbPolyline
 90
    4
 70
    1
 43
0
 10
92.6504
 20
-45.46259999999998
 10
92.6504
 20
-59.31199999999998
 10
78.7996
 20
-59.31199999999998
 10
78.7996
 20
-45.46259999999998
  0
LWPOLYLINE
  5
200
100
AcDbEntity
  8
Left
  6
ByLayer
 62
  256
370
   -1
100
AcDbPolyline
 90
    4
 70
    1
 43
0
 10
73.60040000000001
 20
-43.0814
 10
73.60040000000001
 20
-56.93209999999999
 10
59.7496
 20
-56.93209999999999
 10
59.7496
 20
-43.0814
  0
LWPOLYLINE
  5
201
100
AcDbEntity
  8
Left
  6
ByLayer
 62
  256
370
   -1
100
AcDbPolyline
 90
    4
 70
    1
 43
0
 10
35.5004
 20
-31.1755
 10
35.5004
 20
-45.02449999999999
 10
21.64960000000001
 20
-45.02449999999999
 10
21.64960000000001
 20
-31.1755
  0
LWPOLYLINE
  5
202
100
AcDbEntity
  8
Left
  6
ByLayer
 62
  256
370
   -1
100
AcDbPolyline
 90
    4
 70
    1
 43
0
 10
111.7004
 20
-28.79349999999999
 10
111.7004
 20
-42.64320000000001
 10
97.8494
 20
-42.64320000000001
 10
97.8494
 20
-28.79349999999999
  0
LWPOLYLINE
  5
203
100
AcDbEntity
  8
Left
  6
ByLayer
 62
  256
370
   -1
100
AcDbPolyline
 90
    4
 70
    1
 43
0
 10
54.5504
 20
-26.41249999999999
 10
54.5504
 20
-40.262
 10
40.6996
 20
-40.262
 10
40.6996
 20
-26.41249999999999
  0
LWPOLYLINE
  5
204
100
AcDbEntity
  8
Left
  6
ByLayer
 62
  256
370
   -1
100
AcDbPolyline
 90
    4
 70
    1
 43
0
 10
92.6504
 20
-26.41249999999999
 10
92.6504
 20
-40.262
 10
78.7996
 20
-40.262
 10
78.7996
 20
-26.41249999999999
  0
LWPOLYLINE
  5
205
100
AcDbEntity
  8
Left
  6
ByLayer
 62
  256
370
   -1
100
AcDbPolyline
 90
    4
 70
    1
 43
0
 10
73.60040000000001
 20
-24.03149999999999
 10
73.60040000000001
 20
-37.88210000000001
 10
59.7496
 20
-37.88210000000001
 10
59.7496
 20
-24.03149999999999
  0
LWPOLYLINE
  5
206
100
AcDbEntity
  8
Left
  6
ByLayer
 62
  256
370
   -1
100
AcDbPolyline
 90
    4
 70
    1
 43
0
 10
35.5004
 20
-12.12549999999999
 10
35.5004
 20
-25.97450000000001
 10
21.64960000000001
 20
-25.97450000000001
 10
21.64960000000001
 20
-12.12549999999999
  0
LWPOLYLINE
  5
207
100
AcDbEntity
  8
Left
  6
ByLayer
 62
  256
370
   -1
100
AcDbPolyline
 90
    4
 70
    1
 43
0
 10
111.7004
 20
-9.743500000000012
 10
111.7004
 20
-23.59349999999998
 10
97.8494
 20
-23.59349999999998
 10
97.8494
 20
-9.743500000000012
  0
LWPOLYLINE
  5
208
100
AcDbEntity
  8
Left
  6
ByLayer
 62
  256
370
   -1
100
AcDbPolyline
 90
    4
 70
    1
 43
0
 10
54.5504
 20
-7.362499999999983
 10
54.5504
 20
-21.21149999999997
 10
40.6996
 20
-21.21149999999997
 10
40.6996
 20
-7.362499999999983
  0
LWPOLYLINE
  5
209
100
AcDbEntity
  8
Left
  6
ByLayer
 62
  256
370
   -1
100
AcDbPolyline
 90
    4
 70
    1
 43
0
 10
92.6504
 20
-7.362499999999983
 10
92.6504
 20
-21.21149999999997
 10
78.7996
 20
-21.21149999999997
 10
78.7996
 20
-7.362499999999983
  0
LWPOLYLINE
  5
20A
100
AcDbEntity
  8
Left
  6
ByLayer
 62
  256
370
   -1
100
AcDbPolyline
 90
    4
 70
    1
 43
0
 10
73.60040000000001
 20
-4.981499999999983
 10
73.60040000000001
 20
-18.83250000000001
 10
59.7496
 20
-18.83250000000001
 10
59.7496
 20
-4.981499999999983
  0
LWPOLYLINE
  5
20B
100
AcDbEntity
  8
Left
  6
ByLayer
 62
  256
370
   -1
100
AcDbPolyline
 90
    4
 70
    1
 43
0
 10
35.5004
 20
6.924499999999995
 10
35.5004
 20
-6.924499999999995
 10
21.64960000000001
 20
-6.924499999999995
 10
21.64960000000001
 20
6.924499999999995
  0
LWPOLYLINE
  5
20C
100
AcDbEntity
  8
Left
  6
ByLayer
 62
  256
370
   -1
100
AcDbPolyline
 90
    4
 70
    1
 43
0
 10
111.7004
 20
9.3065
 10
111.7004
 20
-4.543499999999995
 10
97.8494
 20
-4.543499999999995
 10
97.8494
 20
9.3065
  0
LWPOLYLINE
  5
20D
100
AcDbEntity
  8
Left
  6
ByLayer
 62
  256
370
   -1
100
AcDbPolyline
 90
    4
 70
    1
 43
0
 10
54.5504
 20
11.6875
 10
54.5504
 20
-2.16149999999999
 10
40.6996
 20
-2.16149999999999
 10
40.6996
 20
11.6875
  0
LWPOLYLINE
  5
20E
100
AcDbEntity
  8
Left
  6
ByLayer
 62
  256
370
   -1
100
AcDbPolyline
 90
    4
 70
    1
 43
0
 10
92.6504
 20
11.6875
 10
92.6504
 20
-2.16149999999999
 10
78.7996
 20
-2.16149999999999
 10
78.7996
 20
11.6875
  0
LWPOLYLINE
  5
20F
100
AcDbEntity
  8
Left
  6
ByLayer
 62
  256
370
   -1
100
AcDbPolyline
 90
    4
 70
    1
 43
0
 10
73.60040000000001
 20
14.0685
 10
73.60040000000001
 20
0.2175000000000011
 10
59.7496
 20
0.2175000000000011
 10
59.7496
 20
14.0685
  0
LWPOLYLINE
  5
210
100
AcDbEntity
  8
Left
  6
ByLayer
 62
  256
370
   -1
100
AcDbPolyline
 90
   20
 70
    1
 43
0
 10
154.1274
 20
-49.46706217545658
 42
0.2679515235730148
 10
156.6274376719178
 20
-53.7972109440522
 10
179.2267132129658
 20
-66.84464661284831
 42
-0.2679515235730189
 10
181.7267508848836
 20
-71.17479538144394
 10
181.7267508848836
 20
-82.94138411490869
 42
-0.1317336733365329
 10
181.056079764144
 20
-85.44276602401459
 10
151.3101384706101
 20
-136.9262928753428
 42
-0.4140254628970408
 10
144.4822087288569
 20
-138.7558454762416
 10
71.3491985226113
 20
-96.56398088999525
 42
0.1315703267853311
 10
68.85059766011847
 20
-95.89491539999999
 10
-14.6005154
 20
-95.89491539999999
 42
-0.414213562373095
 10
-19.6005154
 20
-90.89491539999999
 10
-19.6005154
 20
15.77349999999998
 42
-0.4142135623730949
 10
-14.6005154
 20
20.77349999999998
 10
19.14960000000001
 20
20.77349999999998
 42
0.414213562373094
 10
21.64960000000001
 20
23.27349999999998
 10
21.6496
 20
24.24350000000002
 42
-0.414213562373095
 10
24.1496
 20
26.74350000000002
 10
149.1274
 20
26.74350000000001
 42
-0.414213562373095
 10
154.1274
 20
21.74350000000001
  0
LWPOLYLINE
  5
211
100
AcDbEntity
  8
Right
  6
ByLayer
 62
  256
370
   -1
100
AcDbPolyline
 90
    5
 70
    0
 43
0
 10
226.6831017697674
 20
-96.3177
 10
219.7581017697674
 20
-84.32219999999998
 10
231.7521017697674
 20
-77.39750000000001
 10
238.6771017697674
 20
-89.39329999999998
 10
226.6831017697674
 20
-96.3177
  0
LWPOLYLINE
  5
212
100
AcDbEntity
  8
Right
  6
ByLayer
 62
  256
370
   -1
100
AcDbPolyline
 90
    5
 70
    0
 43
0
 10
200.6601017697674
 20
-89.345
 10
193.7351017697674
 20
-77.34909999999999
 10
205.7291017697674
 20
-70.42449999999999
 10
212.6541017697674
 20
-82.4203
 10
200.6601017697674
 20
-89.345
  0
LWPOLYLINE
  5
213
100
AcDbEntity
  8
Right
  6
ByLayer
 62
  256
370
   -1
100
AcDbPolyline
 90
    5
 70
    0
 43
0
 10
356.5282017697674
 20
-69.37039999999999
 10
356.5282017697674
 20
-83.21969999999999
 10
370.3788017697674
 20
-83.21969999999999
 10
370.3788017697674
 20
-69.37039999999999
 10
356.5282017697674
 20
-69.37039999999999
  0
LWPOLYLINE
  5
214
100
AcDbEntity
  8
Right
  6
ByLayer
 62
  256
370
   -1
100
AcDbPolyline
 90
    5
 70
    0
 43
0
 10
217.1581017697674
 20
-79.81999999999999
 10
210.2331017697674
 20
-67.82409999999999
 10
222.2271017697674
 20
-60.89949999999999
 10
229.1521017697674
 20
-72.89529999999999
 10
217.1581017697674
 20
-79.81999999999999
  0
LWPOLYLINE
  5
215
100
AcDbEntity
  8
Right
  6
ByLayer
 62
  256
370
   -1
100
AcDbPolyline
 90
    5
 70
    0
 43
0
 10
356.5282017697674
 20
-50.2251
 10
356.5282017697674
 20
-64.0745
 10
370.3788017697674
 20
-64.0745
 10
370.3788017697674
 20
-50.2251
 10
356.5282017697674
 20
-50.2251
  0
LWPOLYLINE
  5
216
100
AcDbEntity
  8
Right
  6
ByLayer
 62
  256
370
   -1
100
AcDbPolyline
 90
    5
 70
    0
 43
0
 10
227.9421017697674
 20
-38.31890000000001
 10
227.9421017697674
 20
-52.16819999999998
 10
241.7911017697674
 20
-52.16819999999998
 10
241.7911017697674
 20
-38.31890000000001
 10
227.9421017697674
 20
-38.31890000000001
  0
LWPOLYLINE
  5
217
100
AcDbEntity
  8
Right
  6
ByLayer
 62
  256
370
   -1
100
AcDbPolyline
 90
    5
 70
    0
 43
0
 10
223.1781017697674
 20
-14.50649999999996
 10
223.1781017697674
 20
-28.35749999999999
 10
237.0301017697674
 20
-28.35749999999999
 10
237.0301017697674
 20
-14.50649999999996
 10
223.1781017697674
 20
-14.50649999999996
  0
LWPOLYLINE
  5
218
100
AcDbEntity
  8
Right
  6
ByLayer
 62
  256
370
   -1
100
AcDbPolyline
 90
    5
 70
    0
 43
0
 10
227.9421017697674
 20
9.3065
 10
227.9421017697674
 20
-4.543499999999995
 10
241.7911017697674
 20
-4.543499999999995
 10
241.7911017697674
 20
9.3065
 10
227.9421017697674
 20
9.3065
  0
LWPOLYLINE
  5
219
100
AcDbEntity
  8
Right
  6
ByLayer
 62
  256
370
   -1
100
AcDbPolyline
 90
    4
 70
    1
 43
0
 10
219.7101017697674
 20
-122.3393
 10
212.7851017697674
 20
-110.3462
 10
224.7791017697674
 20
-103.4202
 10
231.7041017697674
 20
-115.4147
  0
LWPOLYLINE
  5
21A
100
AcDbEntity
  8
Right
  6
ByLayer
 62
  256
370
   -1
100
AcDbPolyline
 90
    4
 70
    1
 43
0
 10
210.1851017697674
 20
-105.8428
 10
203.2601017697674
 20
-93.84709999999998
 10
215.2541017697674
 20
-86.92249999999999
 10
222.1791017697674
 20
-98.91829999999999
  0
LWPOLYLINE
  5
21B
100
AcDbEntity
  8
Right
  6
ByLayer
 62
  256
370
   -1
100
AcDbPolyline
 90
    4
 70
    1
 43
0
 10
356.5282017697674
 20
-26.50749999999999
 10
356.5282017697674
 20
-40.35719999999999
 10
370.3788017697674
 20
-40.35719999999999
 10
370.3788017697674
 20
-26.50749999999999
  0
LWPOLYLINE
  5
21C
100
AcDbEntity
  8
Right
  6
ByLayer
 62
  256
370
   -1
100
AcDbPolyline
 90
    4
 70
    1
 43
0
 10
356.5282017697674
 20
6.924499999999995
 10
356.5282017697674
 20
-6.924499999999995
 10
370.3788017697674
 20
-6.924499999999995
 10
370.3788017697674
 20
6.924499999999995
  0
LWPOLYLINE
  5
21D
100
AcDbEntity
  8
Right
  6
ByLayer
 62
  256
370
   -1
100
AcDbPolyline
 90
    4
 70
    1
 43
0
 10
249.6861017697674
 20
-88.5361
 10
242.7611017697674
 20
-76.5402
 10
254.7561017697674
 20
-69.6156
 10
261.6811017697674
 20
-81.60999999999999
  0
LWPOLYLINE
  5
21E
100
AcDbEntity
  8
Right
  6
ByLayer
 62
  256
370
   -1
100
AcDbPolyline
 90
    4
 70
    1
 43
0
 10
327.9531017697674
 20
-69.27509999999998
 10
327.9531017697674
 20
-83.12449999999998
 10
341.8039017697674
 20
-83.12449999999998
 10
341.8039017697674
 20
-69.27509999999998
  0
LWPOLYLINE
  5
21F
100
AcDbEntity
  8
Right
  6
ByLayer
 62
  256
370
   -1
100
AcDbPolyline
 90
    4
 70
    1
 43
0
 10
308.9031017697674
 20
-64.51259999999999
 10
308.9031017697674
 20
-78.36199999999999
 10
322.7539017697674
 20
-78.36199999999999
 10
322.7539017697674
 20
-64.51259999999999
  0
LWPOLYLINE
  5
220
100
AcDbEntity
  8
Right
  6
ByLayer
 62
  256
370
   -1
100
AcDbPolyline
 90
    4
 70
    1
 43
0
 10
270.8031017697674
 20
-64.51259999999999
 10
270.8031017697674
 20
-78.36199999999999
 10
284.6539017697674
 20
-78.36199999999999
 10
284.6539017697674
 20
-64.51259999999999
  0
LWPOLYLINE
  5
221
100
AcDbEntity
  8
Right
  6
ByLayer
 62
  256
370
   -1
100
AcDbPolyline
 90
    4
 70
    1
 43
0
 10
289.8531017697674
 20
-62.13
 10
289.8531017697674
 20
-75.98069999999998
 10
303.7039017697674
 20
-75.98069999999998
 10
303.7039017697674
 20
-62.13
  0
LWPOLYLINE
  5
222
100
AcDbEntity
  8
Right
  6
ByLayer
 62
  256
370
   -1
100
AcDbPolyline
 90
    4
 70
    1
 43
0
 10
327.9531017697674
 20
-50.2251
 10
327.9531017697674
 20
-64.0745
 10
341.8039017697674
 20
-64.0745
 10
341.8039017697674
 20
-50.2251
  0
LWPOLYLINE
  5
223
100
AcDbEntity
  8
Right
  6
ByLayer
 62
  256
370
   -1
100
AcDbPolyline
 90
    4
 70
    1
 43
0
 10
251.7531017697674
 20
-47.84389999999999
 10
251.7531017697674
 20
-61.69319999999999
 10
265.6041017697674
 20
-61.69319999999999
 10
265.6041017697674
 20
-47.84389999999999
  0
LWPOLYLINE
  5
224
100
AcDbEntity
  8
Right
  6
ByLayer
 62
  256
370
   -1
100
AcDbPolyline
 90
    4
 70
    1
 43
0
 10
308.9031017697674
 20
-45.46259999999998
 10
308.9031017697674
 20
-59.31199999999998
 10
322.7539017697674
 20
-59.31199999999998
 10
322.7539017697674
 20
-45.46259999999998
  0
LWPOLYLINE
  5
225
100
AcDbEntity
  8
Right
  6
ByLayer
 62
  256
370
   -1
100
AcDbPolyline
 90
    4
 70
    1
 43
0
 10
270.8031017697674
 20
-45.46259999999998
 10
270.8031017697674
 20
-59.31199999999998
 10
284.6539017697674
 20
-59.31199999999998
 10
284.6539017697674
 20
-45.46259999999998
  0
LWPOLYLINE
  5
226
100
AcDbEntity
  8
Right
  6
ByLayer
 62
  256
370
   -1
100
AcDbPolyline
 90
    4
 70
    1
 43
0
 10
289.8531017697674
 20
-43.08139999999999
 10
289.8531017697674
 20
-56.93209999999999
 10
303.7039017697674
 20
-56.93209999999999
 10
303.7039017697674
 20
-43.08139999999999
  0
LWPOLYLINE
  5
227
100
AcDbEntity
  8
Right
  6
ByLayer
 62
  256
370
   -1
100
AcDbPolyline
 90
    4
 70
    1
 43
0
 10
327.9531017697674
 20
-31.17549999999999
 10
327.9531017697674
 20
-45.02449999999999
 10
341.8039017697674
 20
-45.02449999999999
 10
341.8039017697674
 20
-31.17549999999999
  0
LWPOLYLINE
  5
228
100
AcDbEntity
  8
Right
  6
ByLayer
 62
  256
370
   -1
100
AcDbPolyline
 90
    4
 70
    1
 43
0
 10
251.7531017697674
 20
-28.79349999999999
 10
251.7531017697674
 20
-42.64320000000001
 10
265.6041017697674
 20
-42.64320000000001
 10
265.6041017697674
 20
-28.79349999999999
  0
LWPOLYLINE
  5
229
100
AcDbEntity
  8
Right
  6
ByLayer
 62
  256
370
   -1
100
AcDbPolyline
 90
    4
 70
    1
 43
0
 10
308.9031017697674
 20
-26.41249999999999
 10
308.9031017697674
 20
-40.262
 10
322.7539017697674
 20
-40.262
 10
322.7539017697674
 20
-26.41249999999999
  0
LWPOLYLINE
  5
22A
100
AcDbEntity
  8
Right
  6
ByLayer
 62
  256
370
   -1
100
AcDbPolyline
 90
    4
 70
    1
 43
0
 10
270.8031017697674
 20
-26.41249999999999
 10
270.8031017697674
 20
-40.262
 10
284.6539017697674
 20
-40.262
 10
284.6539017697674
 20
-26.41249999999999
  0
LWPOLYLINE
  5
22B
100
AcDbEntity
  8
Right
  6
ByLayer
 62
  256
370
   -1
100
AcDbPolyline
 90
    4
 70
    1
 43
0
 10
289.8531017697674
 20
-24.03149999999999
 10
289.8531017697674
 20
-37.88210000000001
 10
303.7039017697674
 20
-37.88210000000001
 10
303.7039017697674
 20
-24.03149999999999
  0
LWPOLYLINE
  5
22C
100
AcDbEntity
  8
Right
  6
ByLayer
 62
  256
370
   -1
100
AcDbPolyline
 90
    4
 70
    1
 43
0
 10
327.9531017697674
 20
-12.12549999999999
 10
327.9531017697674
 20
-25.97450000000002
 10
341.8039017697674
 20
-25.97450000000002
 10
341.8039017697674
 20
-12.12549999999999
  0
LWPOLYLINE
  5
22D
100
AcDbEntity
  8
Right
  6
ByLayer
 62
  256
370
   -1
100
AcDbPolyline
 90
    4
 70
    1
 43
0
 10
251.7531017697674
 20
-9.743500000000012
 10
251.7531017697674
 20
-23.59349999999999
 10
265.6041017697674
 20
-23.59349999999999
 10
265.6041017697674
 20
-9.743500000000012
  0
LWPOLYLINE
  5
22E
100
AcDbEntity
  8
Right
  6
ByLayer
 62
  256
370
   -1
100
AcDbPolyline
 90
    4
 70
    1
 43
0
 10
308.9031017697674
 20
-7.362499999999983
 10
308.9031017697674
 20
-21.21149999999997
 10
322.7539017697674
 20
-21.21149999999997
 10
322.7539017697674
 20
-7.362499999999983
  0
LWPOLYLINE
  5
22F
100
AcDbEntity
  8
Right
  6
ByLayer
 62
  256
370
   -1
100
AcDbPolyline
 90
    4
 70
    1
 43
0
 10
270.8031017697674
 20
-7.362499999999983
 10
270.8031017697674
 20
-21.21149999999997
 10
284.6539017697674
 20
-21.21149999999997
 10
284.6539017697674
 20
-7.362499999999983
  0
LWPOLYLINE
  5
230
100
AcDbEntity
  8
Right
  6
ByLayer
 62
  256
370
   -1
100
AcDbPolyline
 90
    4
 70
    1
 43
0
 10
289.8531017697674
 20
-4.981499999999983
 10
289.8531017697674
 20
-18.83250000000001
 10
303.7039017697674
 20
-18.83250000000001
 10
303.7039017697674
 20
-4.981499999999983
  0
LWPOLYLINE
  5
231
100
AcDbEntity
  8
Right
  6
ByLayer
 62
  256
370
   -1
100
AcDbPolyline
 90
    4
 70
    1
 43
0
 10
327.9531017697674
 20
6.924499999999995
 10
327.9531017697674
 20
-6.924499999999995
 10
341.8039017697674
 20
-6.924499999999995
 10
341.8039017697674
 20
6.924499999999995
  0
LWPOLYLINE
  5
232
100
AcDbEntity
  8
Right
  6
ByLayer
 62
  256
370
   -1
100
AcDbPolyline
 90
    4
 70
    1
 43
0
 10
251.7531017697674
 20
9.3065
 10
251.7531017697674
 20
-4.543499999999995
 10
265.6041017697674
 20
-4.543499999999995
 10
265.6041017697674
 20
9.3065
  0
LWPOLYLINE
  5
233
100
AcDbEntity
  8
Right
  6
ByLayer
 62
  256
370
   -1
100
AcDbPolyline
 90
    4
 70
    1
 43
0
 10
308.9031017697674
 20
11.6875
 10
308.9031017697674
 20
-2.16149999999999
 10
322.7539017697674
 20
-2.16149999999999
 10
322.7539017697674
 20
11.6875
  0
LWPOLYLINE
  5
234
100
AcDbEntity
  8
Right
  6
ByLayer
 62
  256
370
   -1
100
AcDbPolyline
 90
    4
 70
    1
 43
0
 10
270.8031017697674
 20
11.6875
 10
270.8031017697674
 20
-2.16149999999999
 10
284.6539017697674
 20
-2.16149999999999
 10
284.6539017697674
 20
11.6875
  0
LWPOLYLINE
  5
235
100
AcDbEntity
  8
Right
  6
ByLayer
 62
  256
370
   -1
100
AcDbPolyline
 90
    4
 70
    1
 43
0
 10
289.8531017697674
 20
14.06849999999997
 10
289.8531017697674
 20
0.2175000000000011
 10
303.7039017697674
 20
0.2175000000000011
 10
303.7039017697674
 20
14.06849999999997
  0
LWPOLYLINE
  5
236
100
AcDbEntity
  8
Right
  6
ByLayer
 62
  256
370
   -1
100
AcDbPolyline
 90
   20
 70
    1
 43
0
 10
209.3261017697674
 20
-49.46706217545658
 42
-0.267951523573015
 10
206.8260640978496
 20
-53.7972109440522
 10
184.2267885568016
 20
-66.84464661284831
 42
0.2679515235730186
 10
181.7267508848838
 20
-71.17479538144394
 10
181.7267508848838
 20
-82.94138411490869
 42
0.1317336733365327
 10
182.3974220056234
 20
-85.44276602401459
 10
212.1433632991573
 20
-136.9262928753428
 42
0.4140254628970408
 10
218.9712930409105
 20
-138.7558454762416
 10
292.1043032471561
 20
-96.56398088999524
 42
-0.1315703267853314
 10
294.6029041096489
 20
-95.89491539999999
 10
378.0540171697674
 20
-95.89491539999999
 42
0.414213562373095
 10
383.0540171697674
 20
-90.89491539999999
 10
383.0540171697674
 20
15.77349999999998
 42
0.4142135623730949
 10
378.0540171697674
 20
20.77349999999998
 10
344.3039017697674
 20
20.77350000000001
 42
-0.4142135623730945
 10
341.8039017697674
 20
23.27350000000001
 10
341.8039017697674
 20
24.24349999999998
 42
0.4142135623730919
 10
339.3039017697674
 20
26.74350000000004
 10
214.3261017697674
 20
26.74350000000002
 42
0.414213562373095
 10
209.3261017697674
 20
21.74350000000002
  0
LEADER
  5
237
100
AcDbEntity
  8
Dimensions
  6
ByLayer
 62
  256
370
   -1
100
AcDbLeader
  3
Standard
 71
    1
 72
    0
 73
    3
 74
    0
 75
    0
 40
1
 41
10
 76
5
 76
5
 10
24.1496
 20
26.74350000000002
 30
0
 10
41.5890589582499
 20
33.81667744801959
 30
0
 10
60.84220181756374
 20
33.81667744801959
 30
0
 10
42.46502300463693
 20
33.81667744801959
 30
0
 10
42.76558434036237
 20
33.81667744801959
 30
0
  0
TEXT
  5
238
100
AcDbEntity
  8
Dimensions
  6
ByLayer
 62
  256
370
   -1
100
AcDbText
 10
42.80731445410891
 20
36.54719186680887
 30
0
 40
2
  1
4mm thick acrylic
 50
0
 41
1
 51
0
  7
STANDARD
 71
    0
 11
42.80731445410891
 21
36.54719186680887
 31
0
210
0
220
0
230
1
100
AcDbText
 73
    3
  0
LEADER
  5
239
100
AcDbEntity
  8
Dimensions
  6
ByLayer
 62
  256
370
   -1
100
AcDbLeader
  3
Standard
 71
    1
 72
    0
 73
    3
 74
    0
 75
    0
 40
1
 41
10
 76
3
 76
3
 10
-10.5
 20
15.77349999999998
 30
0
 10
-18.94440011778096
 20
26.62262289279067
 30
0
 10
-59.91884128161782
 20
26.62262289279067
 30
0
  0
TEXT
  5
23A
100
AcDbEntity
  8
Dimensions
  6
ByLayer
 62
  256
370
   -1
100
AcDbText
 10
-59.03883380321135
 20
29.54088556844321
 30
0
 40
2
  1
Raspberry Pi Pico
 50
0
 41
1
 51
0
  7
STANDARD
 71
    0
 11
-59.03883380321135
 21
29.54088556844321
 31
0
210
0
220
0
230
1
100
AcDbText
 73
    3
  0
LEADER
  5
23B
100
AcDbEntity
  8
Dimensions
  6
ByLayer
 62
  256
370
   -1
100
AcDbLeader
  3
Standard
 71
    1
 72
    0
 73
    3
 74
    0
 75
    0
 40
1
 41
10
 76
3
 76
3
 10
352.9535017697674
 20
15.77350000000001
 30
0
 10
347.4105898962837
 20
30.75946275032855
 30
0
 10
306.370776200222
 20
30.75946275032855
 30
0
  0
TEXT
  5
23C
100
AcDbEntity
  8
Dimensions
  6
ByLayer
 62
  256
370
   -1
100
AcDbText
 10
304.4146679665561
 20
33.8115411974994
 30
0
 40
2
  1
Raspberry Pi Pico
 50
0
 41
1
 51
0
  7
STANDARD
 71
    0
 11
304.4146679665561
 21
33.8115411974994
 31
0
210
0
220
0
230
1
100
AcDbText
 73
    3
  0
ENDSEC
  0
SECTION
  2
OBJECTS
  0
DICTIONARY
  5
C
330
0
100
AcDbDictionary
281
    1
  3
ACAD_GROUP
350
D
  0
DICTIONARY
  5
D
330
C
100
AcDbDictionary
281
    1
  0
ENDSEC
  0
EOF
